0
SECTION
2
HEADER
9
$LTSCALE
40
0.5
9
$LIMMIN
10
-3.199
20
-24.636
9
$LIMMAX
10
67.179
20
24.636
9
$EXTMIN
10
-3.199
20
-24.636
9
$EXTMAX
10
67.179
20
24.636
9
$MEASUREMENT
70
1
9
$LUNITS
70
4
9
$SNAPMODE
70
0
9
$SNAPUNIT
10
1
20
1
9
$GRIDMODE
70
0
9
$GRIDUNIT
10
0
20
0
9
$ORTHOMODE
70
0
9
$TEXTSTYLE
7
txt
9
$CLAYER
8
1
9
$CECOLOR
62
7
9
$CELTYPE
6
CONTINUOUS
9
$OSMODE
70
0
0
ENDSEC
0
SECTION
2
TABLES
0
TABLE
2
STYLE
70
1
0
STYLE
2
STANDARD
70
0
40
0
41
1
50
0
71
0
42
0.2
3
txt
4

0
ENDTAB
0
TABLE
2
LTYPE
70
9
0
LTYPE
2
DASHED
70
0
3
__ __ __ __ __ __ __ __ __ __ __ __ __ __ __
72
65
73
2
40
0.75
49
0.5
49
-0.25
0
LTYPE
2
HIDDEN
70
0
3
_ _ _ _ _ _ _ _ _ _ _ _ _ _ _ _ _ _ _ _ _ _ 
72
65
73
2
40
0.375
49
0.25
49
-0.125
0
LTYPE
2
CENTER
70
0
3
____ _ ____ _ ____ _ ____ _ ____ _ ____ _ __
72
65
73
4
40
2
49
1.25
49
-0.25
49
0.25
49
-0.25
0
LTYPE
2
PHANTOM
70
0
3
_____ _ _ _____ _ _ _____ _ _ _____ _ _ ____
72
65
73
6
40
2.5
49
1.25
49
-0.25
49
0.25
49
-0.25
49
0.25
49
-0.25
0
LTYPE
2
DOT
70
0
3
............................................
72
65
73
2
40
0.25
49
0
49
-0.25
0
LTYPE
2
DASHDOT
70
0
3
__ . __ . __ . __ . __ . __ . __ . __ . __ .
72
65
73
4
40
1
49
0.5
49
-0.25
49
0
49
-0.25
0
LTYPE
2
BORDER
70
0
3
__ __ . __ __ . __ __ . __ __ . __ __ . __ _
72
65
73
6
40
1.75
49
0.5
49
-0.25
49
0.5
49
-0.25
49
0
49
-0.25
0
LTYPE
2
DIVIDE
70
0
3
__ . . __ . . __ . . __ . . __ . . __ . . __
72
65
73
6
40
1.25
49
0.5
49
-0.25
49
0
49
-0.25
49
0
49
-0.25
0
LTYPE
2
DOTS
70
0
3
close
72
65
73
2
40
0.1
49
0.05
49
-0.05
0
ENDTAB
0
TABLE
2
LAYER
70
10
0
LAYER
2
1
70
0
62
7
6
CONTINUOUS
0
LAYER
2
2
70
0
62
7
6
CONTINUOUS
0
LAYER
2
3
70
0
62
7
6
CONTINUOUS
0
LAYER
2
4
70
0
62
7
6
CONTINUOUS
0
LAYER
2
5
70
0
62
7
6
CONTINUOUS
0
LAYER
2
6
70
0
62
7
6
CONTINUOUS
0
LAYER
2
7
70
0
62
7
6
CONTINUOUS
0
LAYER
2
8
70
0
62
7
6
CONTINUOUS
0
LAYER
2
9
70
0
62
7
6
CONTINUOUS
0
LAYER
2
10
70
0
62
7
6
CONTINUOUS
0
ENDTAB
0
ENDSEC
0
SECTION
2
ENTITIES
0
ARC
8
1
62
7
10
19.099000
20
0.000000
40
19.099000
50
144.834065
51
215.165935
0
ARC
8
1
62
7
10
65.040000
20
0.000000
40
57.540000
50
168.978849
51
191.021151
0
LINE
8
1
62
7
10
3.485807
20
11.000000
11
8.561229
21
11.000000
0
LINE
8
1
62
7
10
3.485807
20
11.000000
11
3.485807
21
11.000000
0
LINE
8
1
62
7
10
3.485807
20
-11.000000
11
8.561229
21
-11.000000
0
LINE
8
1
62
7
10
3.485807
20
-11.000000
11
3.485807
21
-11.000000
0
ARC
8
1
62
7
10
-71.170000
20
0.000000
40
80.170000
50
353.554306
51
6.445694
0
ARC
8
1
62
7
10
26.706000
20
0.000000
40
16.106000
50
154.238843
51
205.761157
0
LINE
8
1
62
7
10
12.200717
20
7.000000
11
12.200717
21
9.000000
0
LINE
8
1
62
7
10
12.200717
20
-7.000000
11
12.200717
21
-9.000000
0
LINE
8
1
62
7
10
8.493222
20
9.000000
11
12.200717
21
9.000000
0
LINE
8
1
62
7
10
8.493222
20
9.000000
11
8.493222
21
9.000000
0
LINE
8
1
62
7
10
8.493222
20
-9.000000
11
12.200717
21
-9.000000
0
LINE
8
1
62
7
10
8.493222
20
-9.000000
11
8.493222
21
-9.000000
0
LINE
8
1
62
7
10
12.600000
20
-8.607054
11
12.600000
21
8.607054
0
ARC
8
1
62
7
10
98.040000
20
0.000000
40
84.140000
50
173.859634
51
186.140366
0
ARC
8
1
62
7
10
34.499000
20
0.000000
40
19.099000
50
151.885906
51
208.114094
0
LINE
8
1
62
7
10
14.382725
20
9.000000
11
17.653472
21
9.000000
0
LINE
8
1
62
7
10
14.382725
20
9.000000
11
14.382725
21
9.000000
0
LINE
8
1
62
7
10
14.382725
20
-9.000000
11
17.653472
21
-9.000000
0
LINE
8
1
62
7
10
14.382725
20
-9.000000
11
14.382725
21
-9.000000
0
ARC
8
1
62
7
10
-18.060000
20
0.000000
40
40.460000
50
347.147501
51
12.852499
0
LINE
8
1
62
7
10
17.653472
20
9.000000
11
21.386313
21
9.000000
0
LINE
8
1
62
7
10
17.653472
20
9.000000
11
17.653472
21
9.000000
0
LINE
8
1
62
7
10
17.653472
20
-9.000000
11
21.386313
21
-9.000000
0
LINE
8
1
62
7
10
17.653472
20
-9.000000
11
17.653472
21
-9.000000
0
LINE
8
1
62
7
10
63.980000
20
-22.396396
11
63.980000
21
22.396396
0
LINE
8
2
62
7
10
2.414433
20
-9.295000
11
8.058620
21
-7.998369
0
LINE
8
2
62
7
10
8.058620
20
-7.998369
11
8.616569
21
-7.831491
0
LINE
8
2
62
7
10
8.616569
20
-7.831491
11
12.357740
21
-7.316466
0
LINE
8
2
62
7
10
1.033200
20
-6.196667
11
7.737969
21
-5.227699
0
LINE
8
2
62
7
10
7.737969
20
-5.227699
11
8.842457
21
-5.023502
0
LINE
8
2
62
7
10
8.842457
20
-5.023502
11
11.333788
21
-4.806073
0
LINE
8
2
62
7
10
11.333788
20
-4.806073
11
12.600000
21
-4.874002
0
LINE
8
2
62
7
10
12.600000
20
-4.874002
11
14.045824
21
-4.951567
0
LINE
8
2
62
7
10
14.045824
20
-4.951567
11
16.059560
21
-4.975829
0
LINE
8
2
62
7
10
16.059560
20
-4.975829
11
22.103372
21
-4.890313
0
LINE
8
2
62
7
10
22.103372
20
-4.890313
11
63.980000
21
0.015319
0
LINE
8
2
62
7
10
0.252989
20
-3.098333
11
7.558179
21
-2.586855
0
LINE
8
2
62
7
10
7.558179
20
-2.586855
11
8.962179
21
-2.462262
0
LINE
8
2
62
7
10
8.962179
20
-2.462262
11
10.777613
21
-2.385316
0
LINE
8
2
62
7
10
10.777613
20
-2.385316
11
12.600000
21
-2.430985
0
LINE
8
2
62
7
10
12.600000
20
-2.430985
11
13.936100
21
-2.464469
0
LINE
8
2
62
7
10
13.936100
20
-2.464469
11
15.560732
21
-2.472612
0
LINE
8
2
62
7
10
15.560732
20
-2.472612
11
22.327487
21
-2.421266
0
LINE
8
2
62
7
10
22.327487
20
-2.421266
11
63.980000
21
0.001753
0
LINE
8
2
62
7
10
0.000000
20
0.000000
11
7.500000
21
0.000000
0
LINE
8
2
62
7
10
7.500000
20
0.000000
11
9.000000
21
0.000000
0
LINE
8
2
62
7
10
9.000000
20
0.000000
11
10.600000
21
0.000000
0
LINE
8
2
62
7
10
10.600000
20
0.000000
11
12.600000
21
0.000000
0
LINE
8
2
62
7
10
12.600000
20
0.000000
11
13.900000
21
0.000000
0
LINE
8
2
62
7
10
13.900000
20
0.000000
11
15.400000
21
0.000000
0
LINE
8
2
62
7
10
15.400000
20
0.000000
11
22.400000
21
0.000000
0
LINE
8
2
62
7
10
22.400000
20
0.000000
11
63.980000
21
0.000000
0
LINE
8
2
62
7
10
0.252989
20
3.098333
11
7.558179
21
2.586855
0
LINE
8
2
62
7
10
7.558179
20
2.586855
11
8.962179
21
2.462262
0
LINE
8
2
62
7
10
8.962179
20
2.462262
11
10.777613
21
2.385316
0
LINE
8
2
62
7
10
10.777613
20
2.385316
11
12.600000
21
2.430985
0
LINE
8
2
62
7
10
12.600000
20
2.430985
11
13.936100
21
2.464469
0
LINE
8
2
62
7
10
13.936100
20
2.464469
11
15.560732
21
2.472612
0
LINE
8
2
62
7
10
15.560732
20
2.472612
11
22.327487
21
2.421266
0
LINE
8
2
62
7
10
22.327487
20
2.421266
11
63.980000
21
-0.001753
0
LINE
8
2
62
7
10
1.033200
20
6.196667
11
7.737969
21
5.227699
0
LINE
8
2
62
7
10
7.737969
20
5.227699
11
8.842457
21
5.023502
0
LINE
8
2
62
7
10
8.842457
20
5.023502
11
11.333788
21
4.806073
0
LINE
8
2
62
7
10
11.333788
20
4.806073
11
12.600000
21
4.874002
0
LINE
8
2
62
7
10
12.600000
20
4.874002
11
14.045824
21
4.951567
0
LINE
8
2
62
7
10
14.045824
20
4.951567
11
16.059560
21
4.975829
0
LINE
8
2
62
7
10
16.059560
20
4.975829
11
22.103372
21
4.890313
0
LINE
8
2
62
7
10
22.103372
20
4.890313
11
63.980000
21
-0.015319
0
LINE
8
2
62
7
10
2.414433
20
9.295000
11
8.058620
21
7.998369
0
LINE
8
2
62
7
10
8.058620
20
7.998369
11
8.616569
21
7.831491
0
LINE
8
2
62
7
10
8.616569
20
7.831491
11
12.357740
21
7.316466
0
LINE
8
2
62
7
10
2.978450
20
-10.242053
11
8.147729
21
-8.609361
0
LINE
8
2
62
7
10
8.147729
20
-8.609361
11
8.556103
21
-8.424808
0
LINE
8
2
62
7
10
8.556103
20
-8.424808
11
12.497525
21
-7.584357
0
LINE
8
2
62
7
10
1.449205
20
-7.297707
11
7.796544
21
-5.834237
0
LINE
8
2
62
7
10
7.796544
20
-5.834237
11
8.811341
21
-5.496729
0
LINE
8
2
62
7
10
8.811341
20
-5.496729
11
11.414998
21
-5.058506
0
LINE
8
2
62
7
10
11.414998
20
-5.058506
11
12.600000
21
-4.976593
0
LINE
8
2
62
7
10
12.600000
20
-4.976593
11
14.041459
21
-4.876952
0
LINE
8
2
62
7
10
14.041459
20
-4.876952
11
15.999987
21
-4.749561
0
LINE
8
2
62
7
10
15.999987
20
-4.749561
11
22.177320
21
-4.239067
0
LINE
8
2
62
7
10
22.177320
20
-4.239067
11
63.980000
21
5.389931
0
LINE
8
2
62
7
10
0.489432
20
-4.296018
11
7.588498
21
-3.190067
0
LINE
8
2
62
7
10
7.588498
20
-3.190067
11
8.948505
21
-2.872993
0
LINE
8
2
62
7
10
8.948505
20
-2.872993
11
10.817358
21
-2.637097
0
LINE
8
2
62
7
10
10.817358
20
-2.637097
11
12.600000
21
-2.456339
0
LINE
8
2
62
7
10
12.600000
20
-2.456339
11
13.932026
21
-2.321273
0
LINE
8
2
62
7
10
13.932026
20
-2.321273
11
15.527488
21
-2.203071
0
LINE
8
2
62
7
10
15.527488
20
-2.203071
11
22.365528
21
-1.669821
0
LINE
8
2
62
7
10
22.365528
20
-1.669821
11
63.980000
21
5.375690
0
LINE
8
2
62
7
10
0.040484
20
-1.242891
11
7.503178
21
-0.604785
0
LINE
8
2
62
7
10
7.503178
20
-0.604785
11
8.999042
21
-0.391931
0
LINE
8
2
62
7
10
8.999042
20
-0.391931
11
10.602033
21
-0.255873
0
LINE
8
2
62
7
10
10.602033
20
-0.255873
11
12.600000
21
0.001470
0
LINE
8
2
62
7
10
12.600000
20
0.001470
11
13.900170
21
0.168934
0
LINE
8
2
62
7
10
13.900170
20
0.168934
11
15.402192
21
0.289356
0
LINE
8
2
62
7
10
15.402192
20
0.289356
11
22.392337
21
0.787433
0
LINE
8
2
62
7
10
22.392337
20
0.787433
11
63.980000
21
5.370757
0
LINE
8
2
62
7
10
0.090836
20
1.860513
11
7.533881
21
1.974305
0
LINE
8
2
62
7
10
7.533881
20
1.974305
11
8.973791
21
2.049781
0
LINE
8
2
62
7
10
8.973791
20
2.049781
11
10.740676
21
2.124068
0
LINE
8
2
62
7
10
10.740676
20
2.124068
11
12.600000
21
2.412934
0
LINE
8
2
62
7
10
12.600000
20
2.412934
11
13.940840
21
2.621249
0
LINE
8
2
62
7
10
13.940840
20
2.621249
11
15.600976
21
2.763420
0
LINE
8
2
62
7
10
15.600976
20
2.763420
11
22.274145
21
3.188787
0
LINE
8
2
62
7
10
22.274145
20
3.188787
11
63.980000
21
5.371406
0
LINE
8
2
62
7
10
0.670786
20
5.017244
11
7.684240
21
4.600910
0
LINE
8
2
62
7
10
7.684240
20
4.600910
11
8.870842
21
4.548898
0
LINE
8
2
62
7
10
8.870842
20
4.548898
11
11.252302
21
4.537228
0
LINE
8
2
62
7
10
11.252302
20
4.537228
11
12.600000
21
4.786113
0
LINE
8
2
62
7
10
12.600000
20
4.786113
11
14.051940
21
5.054249
0
LINE
8
2
62
7
10
14.051940
20
5.054249
11
16.134862
21
5.246925
0
LINE
8
2
62
7
10
16.134862
20
5.246925
11
22.013560
21
5.578658
0
LINE
8
2
62
7
10
22.013560
20
5.578658
11
63.980000
21
5.364540
0
LINE
8
2
62
7
10
1.867067
20
8.236036
11
7.971650
21
7.352214
0
LINE
8
2
62
7
10
7.971650
20
7.352214
11
8.672196
21
7.242419
0
LINE
8
2
62
7
10
8.672196
20
7.242419
11
12.215808
21
7.031186
0
LINE
8
2
62
7
10
1.911008
20
-8.327349
11
7.860385
21
-6.429874
0
LINE
8
2
62
7
10
7.860385
20
-6.429874
11
8.777007
21
-5.975368
0
LINE
8
2
62
7
10
8.777007
20
-5.975368
11
11.496752
21
-5.299246
0
LINE
8
2
62
7
10
11.496752
20
-5.299246
11
12.600000
21
-5.092013
0
LINE
8
2
62
7
10
12.600000
20
-5.092013
11
14.038278
21
-4.821849
0
LINE
8
2
62
7
10
14.038278
20
-4.821849
11
15.951294
21
-4.555699
0
LINE
8
2
62
7
10
15.951294
20
-4.555699
11
22.237759
21
-3.619696
0
LINE
8
2
62
7
10
22.237759
20
-3.619696
11
63.980000
21
10.843552
0
LINE
8
2
62
7
10
0.795858
20
-5.455895
11
7.625183
21
-3.793471
0
LINE
8
2
62
7
10
7.625183
20
-3.793471
11
8.932670
21
-3.284979
0
LINE
8
2
62
7
10
8.932670
20
-3.284979
11
10.859535
21
-2.879718
0
LINE
8
2
62
7
10
10.859535
20
-2.879718
11
12.600000
21
-2.482040
0
LINE
8
2
62
7
10
12.600000
20
-2.482040
11
13.928208
21
-2.178558
0
LINE
8
2
62
7
10
13.928208
20
-2.178558
11
15.498761
21
-1.939776
0
LINE
8
2
62
7
10
15.498761
20
-1.939776
11
22.389440
21
-0.924343
0
LINE
8
2
62
7
10
22.389440
20
-0.924343
11
63.980000
21
10.833403
0
LINE
8
2
62
7
10
0.162539
20
-2.486412
11
7.512920
21
-1.219266
0
LINE
8
2
62
7
10
7.512920
20
-1.219266
11
8.996149
21
-0.785810
0
LINE
8
2
62
7
10
8.996149
20
-0.785810
11
10.608096
21
-0.510601
0
LINE
8
2
62
7
10
10.608096
20
-0.510601
11
12.600000
21
0.012313
0
LINE
8
2
62
7
10
12.600000
20
0.012313
11
13.900744
21
0.353784
0
LINE
8
2
62
7
10
13.900744
20
0.353784
11
15.409312
21
0.596333
0
LINE
8
2
62
7
10
15.409312
20
0.596333
11
22.368833
21
1.587780
0
LINE
8
2
62
7
10
22.368833
20
1.587780
11
63.980000
21
10.824731
0
LINE
8
2
62
7
10
0.008828
20
0.580648
11
7.515667
21
1.342669
0
LINE
8
2
62
7
10
7.515667
20
1.342669
11
8.983369
21
1.632894
0
LINE
8
2
62
7
10
8.983369
20
1.632894
11
10.707020
21
1.853609
0
LINE
8
2
62
7
10
10.707020
20
1.853609
11
12.600000
21
2.412191
0
LINE
8
2
62
7
10
12.600000
20
2.412191
11
13.946924
21
2.809642
0
LINE
8
2
62
7
10
13.946924
20
2.809642
11
15.652731
21
3.096765
0
LINE
8
2
62
7
10
15.652731
20
3.096765
11
22.203049
21
3.987291
0
LINE
8
2
62
7
10
22.203049
20
3.987291
11
63.980000
21
10.828664
0
LINE
8
2
62
7
10
0.372355
20
3.752942
11
7.635337
21
3.944146
0
LINE
8
2
62
7
10
7.635337
20
3.944146
11
8.896738
21
4.067717
0
LINE
8
2
62
7
10
8.896738
20
4.067717
11
11.170568
21
4.248953
0
LINE
8
2
62
7
10
11.170568
20
4.248953
11
12.600000
21
4.721571
0
LINE
8
2
62
7
10
12.600000
20
4.721571
11
14.061127
21
5.204668
0
LINE
8
2
62
7
10
14.061127
20
5.204668
11
16.236304
21
5.589787
0
LINE
8
2
62
7
10
16.236304
20
5.589787
11
21.903213
21
6.320852
0
LINE
8
2
62
7
10
21.903213
20
6.320852
11
63.980000
21
10.838994
0
LINE
8
2
62
7
10
1.348781
20
7.049932
11
7.886844
21
6.660954
0
LINE
8
2
62
7
10
7.886844
20
6.660954
11
8.723999
21
6.646645
0
LINE
8
2
62
7
10
8.723999
20
6.646645
11
12.068429
21
6.718985
0
LINE
8
2
62
7
10
12.068429
20
6.718985
11
12.600000
21
6.919842
0
LINE
8
2
62
7
10
12.600000
20
6.919842
11
14.238424
21
7.538932
0
LINE
8
2
62
7
10
14.238424
20
7.538932
11
17.205901
21
8.106821
0
LINE
8
2
62
7
10
17.205901
20
8.106821
11
21.467915
21
8.634556
0
LINE
8
2
62
7
10
21.467915
20
8.634556
11
63.980000
21
10.940522
0
LINE
8
2
62
7
10
2.413098
20
-9.292604
11
7.930321
21
-7.023968
0
LINE
8
2
62
7
10
7.930321
20
-7.023968
11
8.738665
21
-6.467929
0
LINE
8
2
62
7
10
8.738665
20
-6.467929
11
11.580900
21
-5.534852
0
LINE
8
2
62
7
10
11.580900
20
-5.534852
11
12.600000
21
-5.224012
0
LINE
8
2
62
7
10
12.600000
20
-5.224012
11
14.036224
21
-4.785943
0
LINE
8
2
62
7
10
14.036224
20
-4.785943
11
15.911845
21
-4.391978
0
LINE
8
2
62
7
10
15.911845
20
-4.391978
11
22.285806
21
-3.037684
0
LINE
8
2
62
7
10
22.285806
20
-3.037684
11
63.980000
21
16.441040
0
LINE
8
2
62
7
10
1.169427
20
-6.580441
11
7.669000
21
-4.406813
0
LINE
8
2
62
7
10
7.669000
20
-4.406813
11
8.914561
21
-3.700266
0
LINE
8
2
62
7
10
8.914561
20
-3.700266
11
10.903679
21
-3.112860
0
LINE
8
2
62
7
10
10.903679
20
-3.112860
11
12.600000
21
-2.501721
0
LINE
8
2
62
7
10
12.600000
20
-2.501721
11
13.924362
21
-2.024589
0
LINE
8
2
62
7
10
13.924362
20
-2.024589
11
15.473151
21
-1.669987
0
LINE
8
2
62
7
10
15.473151
20
-1.669987
11
22.399610
21
-0.177574
0
LINE
8
2
62
7
10
22.399610
20
-0.177574
11
63.980000
21
16.444233
0
LINE
8
2
62
7
10
0.367965
20
-3.730968
11
7.529864
21
-1.853606
0
LINE
8
2
62
7
10
7.529864
20
-1.853606
11
8.991286
21
-1.181971
0
LINE
8
2
62
7
10
8.991286
20
-1.181971
11
10.618010
21
-0.761458
0
LINE
8
2
62
7
10
10.618010
20
-0.761458
11
12.600000
21
0.045068
0
LINE
8
2
62
7
10
12.600000
20
0.045068
11
13.901964
21
0.574873
0
LINE
8
2
62
7
10
13.901964
20
0.574873
11
15.423307
21
0.943260
0
LINE
8
2
62
7
10
15.423307
20
0.943260
11
22.327762
21
2.416665
0
LINE
8
2
62
7
10
22.327762
20
2.416665
11
63.980000
21
16.433090
0
LINE
8
2
62
7
10
0.014435
20
-0.742408
11
7.504036
21
0.681511
0
LINE
8
2
62
7
10
7.504036
20
0.681511
11
8.990859
21
1.210635
0
LINE
8
2
62
7
10
8.990859
20
1.210635
11
10.677309
21
1.576169
0
LINE
8
2
62
7
10
10.677309
20
1.576169
11
12.600000
21
2.445681
0
LINE
8
2
62
7
10
12.600000
20
2.445681
11
13.955616
21
3.058740
0
LINE
8
2
62
7
10
13.955616
20
3.058740
11
15.724830
21
3.507468
0
LINE
8
2
62
7
10
15.724830
20
3.507468
11
22.109416
21
4.840414
0
LINE
8
2
62
7
10
22.109416
20
4.840414
11
63.980000
21
16.441304
0
LINE
8
2
62
7
10
0.151189
20
2.398388
11
7.591682
21
3.246892
0
LINE
8
2
62
7
10
7.591682
20
3.246892
11
8.920169
21
3.576829
0
LINE
8
2
62
7
10
8.920169
20
3.576829
11
11.089514
21
3.940633
0
LINE
8
2
62
7
10
11.089514
20
3.940633
11
12.600000
21
4.700620
0
LINE
8
2
62
7
10
12.600000
20
4.700620
11
14.076263
21
5.443388
0
LINE
8
2
62
7
10
14.076263
20
5.443388
11
16.386790
21
6.059674
0
LINE
8
2
62
7
10
16.386790
20
6.059674
11
21.762868
21
7.151976
0
LINE
8
2
62
7
10
21.762868
20
7.151976
11
63.980000
21
16.478650
0
LINE
8
2
62
7
10
0.877359
20
5.722203
11
7.804735
21
5.914057
0
LINE
8
2
62
7
10
7.804735
20
5.914057
11
8.772366
21
6.037142
0
LINE
8
2
62
7
10
8.772366
20
6.037142
11
11.914912
21
6.373928
0
LINE
8
2
62
7
10
11.914912
20
6.373928
11
12.600000
21
6.767281
0
LINE
8
2
62
7
10
12.600000
20
6.767281
11
14.254665
21
7.717329
0
LINE
8
2
62
7
10
14.254665
20
7.717329
11
17.466386
21
8.640710
0
LINE
8
2
62
7
10
17.466386
20
8.640710
11
21.292272
21
9.402676
0
LINE
8
2
62
7
10
2.951930
20
-10.200192
11
8.007627
21
-7.626276
0
LINE
8
2
62
7
10
8.007627
20
-7.626276
11
8.695099
21
-6.985333
0
LINE
8
2
62
7
10
8.695099
20
-6.985333
11
11.670846
21
-5.774718
0
LINE
8
2
62
7
10
11.670846
20
-5.774718
11
12.600000
21
-5.383240
0
LINE
8
2
62
7
10
12.600000
20
-5.383240
11
14.035789
21
-4.778302
0
LINE
8
2
62
7
10
14.035789
20
-4.778302
11
15.882720
21
-4.266841
0
LINE
8
2
62
7
10
15.882720
20
-4.266841
11
22.321910
21
-2.512556
0
LINE
8
2
62
7
10
22.321910
20
-2.512556
11
63.980000
21
22.204716
0
LINE
8
2
62
7
10
1.608671
20
-7.672039
11
7.721201
21
-5.040523
0
LINE
8
2
62
7
10
7.721201
20
-5.040523
11
8.894208
21
-4.117228
0
LINE
8
2
62
7
10
8.894208
20
-4.117228
11
10.948747
21
-3.333497
0
LINE
8
2
62
7
10
10.948747
20
-3.333497
11
12.600000
21
-2.506553
0
LINE
8
2
62
7
10
12.600000
20
-2.506553
11
13.920239
21
-1.845380
0
LINE
8
2
62
7
10
13.920239
20
-1.845380
11
15.449887
21
-1.379528
0
LINE
8
2
62
7
10
15.449887
20
-1.379528
11
22.395886
21
0.576981
0
LINE
8
2
62
7
10
22.395886
20
0.576981
11
63.980000
21
22.243901
0
LINE
8
2
62
7
10
0.659742
20
-4.976501
11
7.555162
21
-2.518938
0
LINE
8
2
62
7
10
7.555162
20
-2.518938
11
8.984509
21
-1.575936
0
LINE
8
2
62
7
10
8.984509
20
-1.575936
11
10.631149
21
-1.001194
0
LINE
8
2
62
7
10
10.631149
20
-1.001194
11
12.600000
21
0.120970
0
LINE
8
2
62
7
10
12.600000
20
0.120970
11
13.904441
21
0.864447
0
LINE
8
2
62
7
10
13.904441
20
0.864447
11
15.448867
21
1.365375
0
LINE
8
2
62
7
10
15.448867
20
1.365375
11
22.265389
21
3.297672
0
LINE
8
2
62
7
10
22.265389
20
3.297672
11
63.980000
21
22.230448
0
LINE
8
2
62
7
10
0.116761
20
-2.108650
11
7.500004
21
-0.020819
0
LINE
8
2
62
7
10
7.500004
20
-0.020819
11
8.996143
21
0.786396
0
LINE
8
2
62
7
10
8.996143
20
0.786396
11
10.652452
21
1.298784
0
LINE
8
2
62
7
10
10.652452
20
1.298784
11
12.600000
21
2.545837
0
LINE
8
2
62
7
10
12.600000
20
2.545837
11
13.969650
21
3.422852
0
LINE
8
2
62
7
10
13.969650
20
3.422852
11
15.836836
21
4.061459
0
LINE
8
2
62
7
10
15.836836
20
4.061459
11
21.983477
21
5.790642
0
LINE
8
2
62
7
10
21.983477
20
5.790642
11
63.980000
21
22.226798
0
LINE
8
2
62
7
10
0.023649
20
0.950160
11
7.554219
21
2.497316
0
LINE
8
2
62
7
10
7.554219
20
2.497316
11
8.940934
21
3.076864
0
LINE
8
2
62
7
10
8.940934
20
3.076864
11
11.011220
21
3.616230
0
LINE
8
2
62
7
10
11.011220
20
3.616230
11
12.600000
21
4.769711
0
LINE
8
2
62
7
10
12.600000
20
4.769711
11
14.104448
21
5.861966
0
LINE
8
2
62
7
10
14.104448
20
5.861966
11
16.645305
21
6.783611
0
LINE
8
2
62
7
10
16.645305
20
6.783611
11
21.570872
21
8.148964
0
LINE
8
2
62
7
10
21.570872
20
8.148964
11
63.980000
21
22.251703
0
LINE
8
2
62
7
10
0.476779
20
4.240835
11
7.726463
21
5.100009
0
LINE
8
2
62
7
10
7.726463
20
5.100009
11
8.817185
21
5.411016
0
LINE
8
2
62
7
10
8.817185
20
5.411016
11
11.757204
21
5.994726
0
LINE
8
2
62
7
10
11.757204
20
5.994726
11
12.600000
21
6.725369
0
LINE
8
2
62
7
10
12.600000
20
6.725369
11
14.300483
21
8.199564
0
LINE
8
2
62
7
10
14.300483
20
8.199564
11
18.037627
21
9.684781
  0
ENDSEC
  0
EOF
