0
SECTION
2
HEADER
9
$LTSCALE
40
0.5
9
$LIMMIN
10
-3.88794
20
-22.717
9
$LIMMAX
10
81.6468
20
22.717
9
$EXTMIN
10
-3.88794
20
-22.717
9
$EXTMAX
10
81.6468
20
22.717
9
$MEASUREMENT
70
1
9
$LUNITS
70
4
9
$SNAPMODE
70
0
9
$SNAPUNIT
10
1
20
1
9
$GRIDMODE
70
0
9
$GRIDUNIT
10
0
20
0
9
$ORTHOMODE
70
0
9
$TEXTSTYLE
7
txt
9
$CLAYER
8
1
9
$CECOLOR
62
7
9
$CELTYPE
6
CONTINUOUS
9
$OSMODE
70
0
0
ENDSEC
0
SECTION
2
TABLES
0
TABLE
2
STYLE
70
1
0
STYLE
2
STANDARD
70
0
40
0
41
1
50
0
71
0
42
0.2
3
txt
4

0
ENDTAB
0
TABLE
2
LTYPE
70
9
0
LTYPE
2
DASHED
70
0
3
__ __ __ __ __ __ __ __ __ __ __ __ __ __ __
72
65
73
2
40
0.75
49
0.5
49
-0.25
0
LTYPE
2
HIDDEN
70
0
3
_ _ _ _ _ _ _ _ _ _ _ _ _ _ _ _ _ _ _ _ _ _ 
72
65
73
2
40
0.375
49
0.25
49
-0.125
0
LTYPE
2
CENTER
70
0
3
____ _ ____ _ ____ _ ____ _ ____ _ ____ _ __
72
65
73
4
40
2
49
1.25
49
-0.25
49
0.25
49
-0.25
0
LTYPE
2
PHANTOM
70
0
3
_____ _ _ _____ _ _ _____ _ _ _____ _ _ ____
72
65
73
6
40
2.5
49
1.25
49
-0.25
49
0.25
49
-0.25
49
0.25
49
-0.25
0
LTYPE
2
DOT
70
0
3
............................................
72
65
73
2
40
0.25
49
0
49
-0.25
0
LTYPE
2
DASHDOT
70
0
3
__ . __ . __ . __ . __ . __ . __ . __ . __ .
72
65
73
4
40
1
49
0.5
49
-0.25
49
0
49
-0.25
0
LTYPE
2
BORDER
70
0
3
__ __ . __ __ . __ __ . __ __ . __ __ . __ _
72
65
73
6
40
1.75
49
0.5
49
-0.25
49
0.5
49
-0.25
49
0
49
-0.25
0
LTYPE
2
DIVIDE
70
0
3
__ . . __ . . __ . . __ . . __ . . __ . . __
72
65
73
6
40
1.25
49
0.5
49
-0.25
49
0
49
-0.25
49
0
49
-0.25
0
LTYPE
2
DOTS
70
0
3
close
72
65
73
2
40
0.1
49
0.05
49
-0.05
0
ENDTAB
0
TABLE
2
LAYER
70
10
0
LAYER
2
1
70
0
62
7
6
CONTINUOUS
0
LAYER
2
2
70
0
62
7
6
CONTINUOUS
0
LAYER
2
3
70
0
62
7
6
CONTINUOUS
0
LAYER
2
4
70
0
62
7
6
CONTINUOUS
0
LAYER
2
5
70
0
62
7
6
CONTINUOUS
0
LAYER
2
6
70
0
62
7
6
CONTINUOUS
0
LAYER
2
7
70
0
62
7
6
CONTINUOUS
0
LAYER
2
8
70
0
62
7
6
CONTINUOUS
0
LAYER
2
9
70
0
62
7
6
CONTINUOUS
0
LAYER
2
10
70
0
62
7
6
CONTINUOUS
0
ENDTAB
0
ENDSEC
0
SECTION
2
ENTITIES
0
ARC
8
1
62
7
10
44.452000
20
0.000000
40
44.452000
50
153.261223
51
206.738777
0
ARC
8
1
62
7
10
293.751550
20
0.000000
40
288.660500
50
176.027048
51
183.972952
0
LINE
8
1
62
7
10
4.753382
20
20.000000
11
5.784739
21
20.000000
0
LINE
8
1
62
7
10
4.753382
20
20.000000
11
4.753382
21
20.000000
0
LINE
8
1
62
7
10
4.753382
20
-20.000000
11
5.784739
21
-20.000000
0
LINE
8
1
62
7
10
4.753382
20
-20.000000
11
4.753382
21
-20.000000
0
ARC
8
1
62
7
10
26.953400
20
0.000000
40
21.803500
50
128.767677
51
231.232323
0
ARC
8
1
62
7
10
44.067550
20
0.000000
40
34.062000
50
150.060194
51
209.939806
0
LINE
8
1
62
7
10
13.300832
20
17.000000
11
14.551117
21
17.000000
0
LINE
8
1
62
7
10
13.300832
20
17.000000
11
13.300832
21
17.000000
0
LINE
8
1
62
7
10
13.300832
20
-17.000000
11
14.551117
21
-17.000000
0
LINE
8
1
62
7
10
13.300832
20
-17.000000
11
13.300832
21
-17.000000
0
ARC
8
1
62
7
10
58.680650
20
0.000000
40
47.086000
50
160.135081
51
199.864919
0
ARC
8
1
62
7
10
28.105600
20
0.000000
40
15.324000
50
121.968158
51
238.031842
0
LINE
8
1
62
7
10
19.992341
20
13.000000
11
19.992341
21
16.000000
0
LINE
8
1
62
7
10
19.992341
20
-13.000000
11
19.992341
21
-16.000000
0
LINE
8
1
62
7
10
14.396438
20
16.000000
11
19.992341
21
16.000000
0
LINE
8
1
62
7
10
14.396438
20
16.000000
11
14.396438
21
16.000000
0
LINE
8
1
62
7
10
14.396438
20
-16.000000
11
19.992341
21
-16.000000
0
LINE
8
1
62
7
10
14.396438
20
-16.000000
11
14.396438
21
-16.000000
0
LINE
8
1
62
7
10
22.054300
20
-0.000000
11
22.054300
21
0.000000
0
ARC
8
1
62
7
10
11.212800
20
0.000000
40
17.318500
50
311.353947
51
48.646053
0
LINE
8
1
62
7
10
22.655284
20
13.000000
11
22.655284
21
15.000000
0
LINE
8
1
62
7
10
22.655284
20
-13.000000
11
22.655284
21
-15.000000
0
ARC
8
1
62
7
10
404.029800
20
0.000000
40
374.021500
50
177.701557
51
182.298443
0
LINE
8
1
62
7
10
22.655284
20
15.000000
11
30.309206
21
15.000000
0
LINE
8
1
62
7
10
22.655284
20
15.000000
11
22.655284
21
15.000000
0
LINE
8
1
62
7
10
22.655284
20
-15.000000
11
30.309206
21
-15.000000
0
LINE
8
1
62
7
10
22.655284
20
-15.000000
11
22.655284
21
-15.000000
0
ARC
8
1
62
7
10
4.801200
20
0.000000
40
30.357000
50
330.388263
51
29.611737
0
LINE
8
1
62
7
10
30.309206
20
15.000000
11
31.193385
21
15.000000
0
LINE
8
1
62
7
10
30.309206
20
15.000000
11
30.309206
21
15.000000
0
LINE
8
1
62
7
10
30.309206
20
-15.000000
11
31.193385
21
-15.000000
0
LINE
8
1
62
7
10
30.309206
20
-15.000000
11
30.309206
21
-15.000000
0
ARC
8
1
62
7
10
-51.983350
20
0.000000
40
87.426000
50
349.454755
51
10.545245
0
ARC
8
1
62
7
10
11.577450
20
0.000000
40
28.250000
50
325.502402
51
34.497598
0
LINE
8
1
62
7
10
33.966086
20
16.000000
11
34.859686
21
16.000000
0
LINE
8
1
62
7
10
33.966086
20
16.000000
11
33.966086
21
16.000000
0
LINE
8
1
62
7
10
33.966086
20
-16.000000
11
34.859686
21
-16.000000
0
LINE
8
1
62
7
10
33.966086
20
-16.000000
11
33.966086
21
-16.000000
0
ARC
8
1
62
7
10
204.634450
20
0.000000
40
164.679500
50
174.074754
51
185.925246
0
ARC
8
1
62
7
10
-88.018150
20
0.000000
40
130.808000
50
352.532634
51
7.467366
0
LINE
8
1
62
7
10
40.834762
20
17.000000
11
41.680473
21
17.000000
0
LINE
8
1
62
7
10
40.834762
20
17.000000
11
40.834762
21
17.000000
0
LINE
8
1
62
7
10
40.834762
20
-17.000000
11
41.680473
21
-17.000000
0
LINE
8
1
62
7
10
40.834762
20
-17.000000
11
40.834762
21
-17.000000
0
LINE
8
1
62
7
10
77.758850
20
-20.651788
11
77.758850
21
20.651788
0
LINE
8
2
62
7
10
3.743533
20
-17.855000
11
5.623122
21
-17.518376
0
LINE
8
2
62
7
10
5.623122
20
-17.518376
11
11.952977
21
-15.823398
0
LINE
8
2
62
7
10
11.952977
20
-15.823398
11
13.469039
21
-14.964992
0
LINE
8
2
62
7
10
13.469039
20
-14.964992
11
13.937958
21
-14.669114
0
LINE
8
2
62
7
10
13.937958
20
-14.669114
11
18.860281
21
-12.220845
0
LINE
8
2
62
7
10
18.860281
20
-12.220845
11
22.054300
21
-11.991291
0
LINE
8
2
62
7
10
22.054300
20
-11.991291
11
23.829575
21
-11.863702
0
LINE
8
2
62
7
10
23.829575
20
-11.863702
11
30.269005
21
-13.962468
0
LINE
8
2
62
7
10
30.269005
20
-13.962468
11
31.546198
21
-14.361494
0
LINE
8
2
62
7
10
31.546198
20
-14.361494
11
34.188297
21
-14.756448
0
LINE
8
2
62
7
10
34.188297
20
-14.756448
11
35.534581
21
-14.970584
0
LINE
8
2
62
7
10
35.534581
20
-14.970584
11
40.541368
21
-13.885178
0
LINE
8
2
62
7
10
40.541368
20
-13.885178
11
42.076740
21
-13.640102
0
LINE
8
2
62
7
10
42.076740
20
-13.640102
11
77.758850
21
0.021046
0
LINE
8
2
62
7
10
0.905702
20
-8.927500
11
5.218003
21
-8.560183
0
LINE
8
2
62
7
10
5.218003
20
-8.560183
11
6.816211
21
-8.359798
0
LINE
8
2
62
7
10
6.816211
20
-8.359798
11
10.810978
21
-7.363439
0
LINE
8
2
62
7
10
10.810978
20
-7.363439
11
12.119078
21
-7.007954
0
LINE
8
2
62
7
10
12.119078
20
-7.007954
11
14.245830
21
-6.536954
0
LINE
8
2
62
7
10
14.245830
20
-6.536954
11
22.054300
21
-6.080960
0
LINE
8
2
62
7
10
22.054300
20
-6.080960
11
27.545264
21
-5.760302
0
LINE
8
2
62
7
10
27.545264
20
-5.760302
11
30.057168
21
-6.045926
0
LINE
8
2
62
7
10
30.057168
20
-6.045926
11
34.448452
21
-6.525941
0
LINE
8
2
62
7
10
34.448452
20
-6.525941
11
35.197447
21
-6.543253
0
LINE
8
2
62
7
10
35.197447
20
-6.543253
11
39.016823
21
-6.718875
0
LINE
8
2
62
7
10
39.016823
20
-6.718875
11
40.087194
21
-6.598345
0
LINE
8
2
62
7
10
40.087194
20
-6.598345
11
42.633647
21
-6.390680
0
LINE
8
2
62
7
10
42.633647
20
-6.390680
11
77.758850
21
-0.012967
0
LINE
8
2
62
7
10
0.000000
20
0.000000
11
5.091050
21
0.000000
0
LINE
8
2
62
7
10
5.091050
20
0.000000
11
5.149900
21
0.000000
0
LINE
8
2
62
7
10
5.149900
20
0.000000
11
10.005550
21
0.000000
0
LINE
8
2
62
7
10
10.005550
20
0.000000
11
11.594650
21
0.000000
0
LINE
8
2
62
7
10
11.594650
20
0.000000
11
12.781600
21
0.000000
0
LINE
8
2
62
7
10
12.781600
20
0.000000
11
22.054300
21
0.000000
0
LINE
8
2
62
7
10
22.054300
20
0.000000
11
28.531300
21
0.000000
0
LINE
8
2
62
7
10
28.531300
20
0.000000
11
30.008300
21
0.000000
0
LINE
8
2
62
7
10
30.008300
20
0.000000
11
35.158200
21
0.000000
0
LINE
8
2
62
7
10
35.158200
20
0.000000
11
35.442650
21
0.000000
0
LINE
8
2
62
7
10
35.442650
20
0.000000
11
39.827450
21
0.000000
0
LINE
8
2
62
7
10
39.827450
20
0.000000
11
39.954950
21
0.000000
0
LINE
8
2
62
7
10
39.954950
20
0.000000
11
42.789850
21
0.000000
0
LINE
8
2
62
7
10
42.789850
20
0.000000
11
77.758850
21
0.000000
0
LINE
8
2
62
7
10
0.905702
20
8.927500
11
5.218003
21
8.560183
0
LINE
8
2
62
7
10
5.218003
20
8.560183
11
6.816211
21
8.359798
0
LINE
8
2
62
7
10
6.816211
20
8.359798
11
10.810978
21
7.363439
0
LINE
8
2
62
7
10
10.810978
20
7.363439
11
12.119078
21
7.007954
0
LINE
8
2
62
7
10
12.119078
20
7.007954
11
14.245830
21
6.536954
0
LINE
8
2
62
7
10
14.245830
20
6.536954
11
22.054300
21
6.080960
0
LINE
8
2
62
7
10
22.054300
20
6.080960
11
27.545264
21
5.760302
0
LINE
8
2
62
7
10
27.545264
20
5.760302
11
30.057168
21
6.045926
0
LINE
8
2
62
7
10
30.057168
20
6.045926
11
34.448452
21
6.525941
0
LINE
8
2
62
7
10
34.448452
20
6.525941
11
35.197447
21
6.543253
0
LINE
8
2
62
7
10
35.197447
20
6.543253
11
39.016823
21
6.718875
0
LINE
8
2
62
7
10
39.016823
20
6.718875
11
40.087194
21
6.598345
0
LINE
8
2
62
7
10
40.087194
20
6.598345
11
42.633647
21
6.390680
0
LINE
8
2
62
7
10
42.633647
20
6.390680
11
77.758850
21
0.012967
0
LINE
8
2
62
7
10
3.743533
20
17.855000
11
5.623122
21
17.518376
0
LINE
8
2
62
7
10
5.623122
20
17.518376
11
11.952977
21
15.823398
0
LINE
8
2
62
7
10
11.952977
20
15.823398
11
13.469039
21
14.964992
0
LINE
8
2
62
7
10
13.469039
20
14.964992
11
13.937958
21
14.669114
0
LINE
8
2
62
7
10
13.937958
20
14.669114
11
18.860281
21
12.220845
0
LINE
8
2
62
7
10
18.860281
20
12.220845
11
22.054300
21
11.991291
0
LINE
8
2
62
7
10
22.054300
20
11.991291
11
23.829575
21
11.863702
0
LINE
8
2
62
7
10
23.829575
20
11.863702
11
30.269005
21
13.962468
0
LINE
8
2
62
7
10
30.269005
20
13.962468
11
31.546198
21
14.361494
0
LINE
8
2
62
7
10
31.546198
20
14.361494
11
34.188297
21
14.756448
0
LINE
8
2
62
7
10
34.188297
20
14.756448
11
35.534581
21
14.970584
0
LINE
8
2
62
7
10
35.534581
20
14.970584
11
40.541368
21
13.885178
0
LINE
8
2
62
7
10
40.541368
20
13.885178
11
42.076740
21
13.640102
0
LINE
8
2
62
7
10
42.076740
20
13.640102
11
77.758850
21
-0.021046
0
LINE
8
2
62
7
10
1.523304
20
-11.537217
11
5.297129
21
-10.905553
0
LINE
8
2
62
7
10
5.297129
20
-10.905553
11
7.717278
21
-10.264708
0
LINE
8
2
62
7
10
7.717278
20
-10.264708
11
11.201554
21
-8.946851
0
LINE
8
2
62
7
10
11.201554
20
-8.946851
11
12.351554
21
-8.408700
0
LINE
8
2
62
7
10
12.351554
20
-8.408700
11
14.783247
21
-7.572310
0
LINE
8
2
62
7
10
14.783247
20
-7.572310
11
22.054300
21
-6.098796
0
LINE
8
2
62
7
10
22.054300
20
-6.098796
11
27.814329
21
-4.931498
0
LINE
8
2
62
7
10
27.814329
20
-4.931498
11
30.041215
21
-4.961903
0
LINE
8
2
62
7
10
30.041215
20
-4.961903
11
34.739948
21
-5.021832
0
LINE
8
2
62
7
10
34.739948
20
-5.021832
11
35.301869
21
-4.959429
0
LINE
8
2
62
7
10
35.301869
20
-4.959429
11
39.415113
21
-4.809057
0
LINE
8
2
62
7
10
39.415113
20
-4.809057
11
40.021523
21
-4.682103
0
LINE
8
2
62
7
10
40.021523
20
-4.682103
11
42.718189
21
-4.329269
0
LINE
8
2
62
7
10
42.718189
20
-4.329269
11
77.758850
21
4.774989
0
LINE
8
2
62
7
10
0.085034
20
-2.748206
11
5.100513
21
-2.337334
0
LINE
8
2
62
7
10
5.100513
20
-2.337334
11
5.273034
21
-2.313943
0
LINE
8
2
62
7
10
5.273034
20
-2.313943
11
10.049370
21
-1.727206
0
LINE
8
2
62
7
10
10.049370
20
-1.727206
11
11.616794
21
-1.443904
0
LINE
8
2
62
7
10
11.616794
20
-1.443904
11
12.836762
21
-1.299058
0
LINE
8
2
62
7
10
12.836762
20
-1.299058
11
22.054300
21
0.010583
0
LINE
8
2
62
7
10
22.054300
20
0.010583
11
28.506456
21
0.927315
0
LINE
8
2
62
7
10
28.506456
20
0.927315
11
30.009872
21
1.084530
0
LINE
8
2
62
7
10
30.009872
20
1.084530
11
35.116007
21
1.599972
0
LINE
8
2
62
7
10
35.116007
20
1.599972
11
35.427204
21
1.643319
0
LINE
8
2
62
7
10
35.427204
20
1.643319
11
39.755521
21
2.014647
0
LINE
8
2
62
7
10
39.755521
20
2.014647
11
39.967527
21
2.035229
0
LINE
8
2
62
7
10
39.967527
20
2.035229
11
42.771751
21
2.175938
0
LINE
8
2
62
7
10
42.771751
20
2.175938
11
77.758850
21
4.807774
0
LINE
8
2
62
7
10
0.436350
20
6.213121
11
5.157568
21
6.196585
0
LINE
8
2
62
7
10
5.157568
20
6.196585
11
6.051464
21
6.204973
0
LINE
8
2
62
7
10
6.051464
20
6.204973
11
10.478227
21
5.654841
0
LINE
8
2
62
7
10
10.478227
20
5.654841
11
11.919961
21
5.525335
0
LINE
8
2
62
7
10
11.919961
20
5.525335
11
13.742351
21
5.340605
0
LINE
8
2
62
7
10
13.742351
20
5.340605
11
22.054300
21
6.040811
0
LINE
8
2
62
7
10
22.054300
20
6.040811
11
27.273130
21
6.480450
0
LINE
8
2
62
7
10
27.273130
20
6.480450
11
30.075383
21
7.083540
0
LINE
8
2
62
7
10
30.075383
20
7.083540
11
34.107323
21
7.918244
0
LINE
8
2
62
7
10
34.107323
20
7.918244
11
35.069354
21
8.070453
0
LINE
8
2
62
7
10
35.069354
20
8.070453
11
38.513487
21
8.515421
0
LINE
8
2
62
7
10
38.513487
20
8.515421
11
40.173938
21
8.489857
0
LINE
8
2
62
7
10
40.173938
20
8.489857
11
42.518733
21
8.417537
0
LINE
8
2
62
7
10
42.518733
20
8.417537
11
77.758850
21
4.803363
0
LINE
8
2
62
7
10
2.278475
20
-14.048989
11
5.396019
21
-13.265437
0
LINE
8
2
62
7
10
5.396019
20
-13.265437
11
8.681893
21
-11.897253
0
LINE
8
2
62
7
10
8.681893
20
-11.897253
11
11.626156
21
-10.381512
0
LINE
8
2
62
7
10
11.626156
20
-10.381512
11
12.604417
21
-9.699081
0
LINE
8
2
62
7
10
12.604417
20
-9.699081
11
15.304937
21
-8.424250
0
LINE
8
2
62
7
10
15.304937
20
-8.424250
11
22.054300
21
-6.018399
0
LINE
8
2
62
7
10
22.054300
20
-6.018399
11
28.094431
21
-3.865357
0
LINE
8
2
62
7
10
28.094431
20
-3.865357
11
30.026490
21
-3.688716
0
LINE
8
2
62
7
10
30.026490
20
-3.688716
11
34.983826
21
-3.249081
0
LINE
8
2
62
7
10
34.983826
20
-3.249081
11
35.385980
21
-3.147319
0
LINE
8
2
62
7
10
35.385980
20
-3.147319
11
39.705610
21
-2.620904
0
LINE
8
2
62
7
10
39.705610
20
-2.620904
11
39.974518
21
-2.538629
0
LINE
8
2
62
7
10
39.974518
20
-2.538629
11
42.773902
21
-2.042561
0
LINE
8
2
62
7
10
42.773902
20
-2.042561
11
77.758850
21
9.622406
0
LINE
8
2
62
7
10
0.341322
20
-5.498033
11
5.129442
21
-4.707748
0
LINE
8
2
62
7
10
5.129442
20
-4.707748
11
5.633709
21
-4.567645
0
LINE
8
2
62
7
10
5.633709
20
-4.567645
11
10.179023
21
-3.433303
0
LINE
8
2
62
7
10
10.179023
20
-3.433303
11
11.682078
21
-2.868028
0
LINE
8
2
62
7
10
11.682078
20
-2.868028
11
12.995591
21
-2.551982
0
LINE
8
2
62
7
10
12.995591
20
-2.551982
11
22.054300
21
0.089197
0
LINE
8
2
62
7
10
22.054300
20
0.089197
11
28.421657
21
1.945679
0
LINE
8
2
62
7
10
28.421657
20
1.945679
11
30.015295
21
2.287465
0
LINE
8
2
62
7
10
30.015295
20
2.287465
11
34.976835
21
3.313381
0
LINE
8
2
62
7
10
34.976835
20
3.313381
11
35.375435
21
3.427548
0
LINE
8
2
62
7
10
35.375435
20
3.427548
11
39.521045
21
4.149459
0
LINE
8
2
62
7
10
39.521045
20
4.149459
11
40.009659
21
4.244502
0
LINE
8
2
62
7
10
40.009659
20
4.244502
11
42.712026
21
4.511533
0
LINE
8
2
62
7
10
42.712026
20
4.511533
11
77.758850
21
9.674522
0
LINE
8
2
62
7
10
0.129319
20
3.388258
11
5.115821
21
3.781535
0
LINE
8
2
62
7
10
5.115821
20
3.781535
11
5.490026
21
3.836166
0
LINE
8
2
62
7
10
5.490026
20
3.836166
11
10.222784
21
3.840787
0
LINE
8
2
62
7
10
10.222784
20
3.840787
11
11.763377
21
3.982575
0
LINE
8
2
62
7
10
11.763377
20
3.982575
11
13.316326
21
4.012774
0
LINE
8
2
62
7
10
13.316326
20
4.012774
11
22.054300
21
6.047057
0
LINE
8
2
62
7
10
22.054300
20
6.047057
11
26.967812
21
7.190968
0
LINE
8
2
62
7
10
26.967812
20
7.190968
11
30.098311
21
8.205131
0
LINE
8
2
62
7
10
30.098311
20
8.205131
11
33.691102
21
9.323144
0
LINE
8
2
62
7
10
33.691102
20
9.323144
11
34.904029
21
9.689628
0
LINE
8
2
62
7
10
34.904029
20
9.689628
11
37.870946
21
10.330275
0
LINE
8
2
62
7
10
37.870946
20
10.330275
11
40.291962
21
10.530170
0
LINE
8
2
62
7
10
40.291962
20
10.530170
11
42.362010
21
10.571033
0
LINE
8
2
62
7
10
42.362010
20
10.571033
11
77.758850
21
9.653871
0
LINE
8
2
62
7
10
3.163693
20
-16.469853
11
5.516885
21
-15.673619
0
LINE
8
2
62
7
10
5.516885
20
-15.673619
11
9.631863
21
-13.242242
0
LINE
8
2
62
7
10
9.631863
20
-13.242242
11
12.053860
21
-11.633722
0
LINE
8
2
62
7
10
12.053860
20
-11.633722
11
12.857857
21
-10.833421
0
LINE
8
2
62
7
10
12.857857
20
-10.833421
11
15.753307
21
-9.068949
0
LINE
8
2
62
7
10
15.753307
20
-9.068949
11
22.054300
21
-5.726581
0
LINE
8
2
62
7
10
22.054300
20
-5.726581
11
28.367282
21
-2.377854
0
LINE
8
2
62
7
10
28.367282
20
-2.377854
11
30.013812
21
-2.030608
0
LINE
8
2
62
7
10
30.013812
20
-2.030608
11
35.142193
21
-0.985680
0
LINE
8
2
62
7
10
35.142193
20
-0.985680
11
35.438395
21
-0.862534
0
LINE
8
2
62
7
10
35.438395
20
-0.862534
11
39.827334
21
0.080899
0
LINE
8
2
62
7
10
39.827334
20
0.080899
11
39.955003
21
0.132290
0
LINE
8
2
62
7
10
39.955003
20
0.132290
11
42.787688
21
0.752115
0
LINE
8
2
62
7
10
42.787688
20
0.752115
11
77.758850
21
14.607415
0
LINE
8
2
62
7
10
0.772411
20
-8.250683
11
5.179514
21
-7.145925
0
LINE
8
2
62
7
10
5.179514
20
-7.145925
11
6.204791
21
-6.699839
0
LINE
8
2
62
7
10
6.204791
20
-6.699839
11
10.388177
21
-5.091139
0
LINE
8
2
62
7
10
10.388177
20
-5.091139
11
11.786205
21
-4.242921
0
LINE
8
2
62
7
10
11.786205
20
-4.242921
11
13.236879
21
-3.707576
0
LINE
8
2
62
7
10
13.236879
20
-3.707576
11
22.054300
21
0.330066
0
LINE
8
2
62
7
10
22.054300
20
0.330066
11
28.240077
21
3.162636
0
LINE
8
2
62
7
10
28.240077
20
3.162636
11
30.027246
21
3.764604
0
LINE
8
2
62
7
10
30.027246
20
3.764604
11
34.696008
21
5.277110
0
LINE
8
2
62
7
10
34.696008
20
5.277110
11
35.267252
21
5.535149
0
LINE
8
2
62
7
10
35.267252
20
5.535149
11
39.057117
21
6.552130
0
LINE
8
2
62
7
10
39.057117
20
6.552130
11
40.097738
21
6.856243
0
LINE
8
2
62
7
10
40.097738
20
6.856243
11
42.590706
21
7.215237
0
LINE
8
2
62
7
10
42.590706
20
7.215237
11
77.758850
21
14.665935
0
LINE
8
2
62
7
10
0.002265
20
0.448689
11
5.093887
21
1.279737
0
LINE
8
2
62
7
10
5.093887
20
1.279737
11
5.189139
21
1.307503
0
LINE
8
2
62
7
10
5.189139
20
1.307503
11
10.060970
21
1.942250
0
LINE
8
2
62
7
10
10.060970
20
1.942250
11
11.655996
21
2.402778
0
LINE
8
2
62
7
10
11.655996
20
2.402778
11
13.003276
21
2.597074
0
LINE
8
2
62
7
10
13.003276
20
2.597074
11
22.054300
21
6.186949
0
LINE
8
2
62
7
10
22.054300
20
6.186949
11
26.581832
21
7.982688
0
LINE
8
2
62
7
10
26.581832
20
7.982688
11
30.130735
21
9.569292
0
LINE
8
2
62
7
10
30.130735
20
9.569292
11
33.148670
21
10.861326
0
LINE
8
2
62
7
10
33.148670
20
10.861326
11
34.673688
21
11.569932
0
LINE
8
2
62
7
10
34.673688
20
11.569932
11
37.012391
21
12.293342
0
LINE
8
2
62
7
10
37.012391
20
12.293342
11
40.462451
21
12.918691
0
LINE
8
2
62
7
10
40.462451
20
12.918691
11
42.138940
21
13.033220
0
LINE
8
2
62
7
10
42.138940
20
13.033220
11
77.758850
21
14.625949
0
LINE
8
2
62
7
10
4.174361
20
-18.806704
11
5.663263
21
-18.166545
0
LINE
8
2
62
7
10
5.663263
20
-18.166545
11
10.478901
21
-14.282279
0
LINE
8
2
62
7
10
10.478901
20
-14.282279
11
12.440992
21
-12.648347
0
LINE
8
2
62
7
10
12.440992
20
-12.648347
11
13.078435
21
-11.727293
0
LINE
8
2
62
7
10
13.078435
20
-11.727293
11
16.054790
21
-9.465884
0
LINE
8
2
62
7
10
16.054790
20
-9.465884
11
22.054300
21
-5.011599
0
LINE
8
2
62
7
10
22.054300
20
-5.011599
11
28.530102
21
-0.203694
0
LINE
8
2
62
7
10
28.530102
20
-0.203694
11
30.008445
21
0.329559
0
LINE
8
2
62
7
10
30.008445
20
0.329559
11
35.086015
21
2.092230
0
LINE
8
2
62
7
10
35.086015
20
2.092230
11
35.412511
21
2.295402
0
LINE
8
2
62
7
10
35.412511
20
2.295402
11
39.590904
21
3.648137
0
LINE
8
2
62
7
10
39.590904
20
3.648137
11
40.000004
21
3.851858
0
LINE
8
2
62
7
10
40.000004
20
3.851858
11
42.711154
21
4.536740
0
LINE
8
2
62
7
10
42.711154
20
4.536740
11
77.758850
21
19.844981
0
LINE
8
2
62
7
10
1.384181
20
-11.006510
11
5.253734
21
-9.689910
0
LINE
8
2
62
7
10
5.253734
20
-9.689910
11
6.937359
21
-8.645849
0
LINE
8
2
62
7
10
6.937359
20
-8.645849
11
10.662799
21
-6.659016
0
LINE
8
2
62
7
10
10.662799
20
-6.659016
11
11.918498
21
-5.512939
0
LINE
8
2
62
7
10
11.918498
20
-5.512939
11
13.520093
21
-4.699783
0
LINE
8
2
62
7
10
13.520093
20
-4.699783
11
22.054300
21
0.901767
0
LINE
8
2
62
7
10
22.054300
20
0.901767
11
27.875044
21
4.722296
0
LINE
8
2
62
7
10
27.875044
20
4.722296
11
30.052902
21
5.775988
0
LINE
8
2
62
7
10
30.052902
20
5.775988
11
34.169743
21
7.683497
0
LINE
8
2
62
7
10
34.169743
20
7.683497
11
35.051684
21
8.258834
0
LINE
8
2
62
7
10
35.051684
20
8.258834
11
38.204629
21
9.436941
0
LINE
8
2
62
7
10
38.204629
20
9.436941
11
40.273740
21
10.241810
0
LINE
8
2
62
7
10
40.273740
20
10.241810
11
42.357795
21
10.622897
0
LINE
8
2
62
7
10
42.357795
20
10.622897
11
77.758850
21
19.870975
0
LINE
8
2
62
7
10
0.076533
20
-2.607334
11
5.094197
21
-1.347979
0
LINE
8
2
62
7
10
5.094197
20
-1.347979
11
5.188978
21
-1.304816
0
LINE
8
2
62
7
10
5.188978
20
-1.304816
11
10.005552
21
-0.012264
0
LINE
8
2
62
7
10
10.005552
20
-0.012264
11
11.601823
21
0.821841
0
LINE
8
2
62
7
10
11.601823
20
0.821841
11
12.825589
21
1.160272
0
LINE
8
2
62
7
10
12.825589
20
1.160272
11
22.054300
21
6.608753
0
LINE
8
2
62
7
10
22.054300
20
6.608753
11
26.034281
21
8.958468
0
LINE
8
2
62
7
10
26.034281
20
8.958468
11
30.183060
21
11.432300
0
LINE
8
2
62
7
10
30.183060
20
11.432300
11
32.382514
21
12.681427
0
LINE
8
2
62
7
10
32.382514
20
12.681427
11
34.320404
21
13.963079
0
LINE
8
2
62
7
10
34.320404
20
13.963079
11
35.781496
21
14.568001
0
LINE
8
2
62
7
10
35.781496
20
14.568001
11
40.729338
21
15.951556
0
LINE
8
2
62
7
10
40.729338
20
15.951556
11
41.798799
21
16.071484
0
LINE
8
2
62
7
10
41.798799
20
16.071484
11
77.758850
21
19.792685
  0
ENDSEC
  0
EOF
