0
SECTION
2
HEADER
9
$LTSCALE
40
0.5
9
$LIMMIN
10
-8.274
20
-39.6
9
$LIMMAX
10
173.754
20
39.6
9
$EXTMIN
10
-8.274
20
-39.6
9
$EXTMAX
10
173.754
20
39.6
9
$MEASUREMENT
70
1
9
$LUNITS
70
4
9
$SNAPMODE
70
0
9
$SNAPUNIT
10
1
20
1
9
$GRIDMODE
70
0
9
$GRIDUNIT
10
0
20
0
9
$ORTHOMODE
70
0
9
$TEXTSTYLE
7
txt
9
$CLAYER
8
1
9
$CECOLOR
62
7
9
$CELTYPE
6
CONTINUOUS
9
$OSMODE
70
0
0
ENDSEC
0
SECTION
2
TABLES
0
TABLE
2
STYLE
70
1
0
STYLE
2
STANDARD
70
0
40
0
41
1
50
0
71
0
42
0.2
3
txt
4

0
ENDTAB
0
TABLE
2
LTYPE
70
9
0
LTYPE
2
DASHED
70
0
3
__ __ __ __ __ __ __ __ __ __ __ __ __ __ __
72
65
73
2
40
0.75
49
0.5
49
-0.25
0
LTYPE
2
HIDDEN
70
0
3
_ _ _ _ _ _ _ _ _ _ _ _ _ _ _ _ _ _ _ _ _ _ 
72
65
73
2
40
0.375
49
0.25
49
-0.125
0
LTYPE
2
CENTER
70
0
3
____ _ ____ _ ____ _ ____ _ ____ _ ____ _ __
72
65
73
4
40
2
49
1.25
49
-0.25
49
0.25
49
-0.25
0
LTYPE
2
PHANTOM
70
0
3
_____ _ _ _____ _ _ _____ _ _ _____ _ _ ____
72
65
73
6
40
2.5
49
1.25
49
-0.25
49
0.25
49
-0.25
49
0.25
49
-0.25
0
LTYPE
2
DOT
70
0
3
............................................
72
65
73
2
40
0.25
49
0
49
-0.25
0
LTYPE
2
DASHDOT
70
0
3
__ . __ . __ . __ . __ . __ . __ . __ . __ .
72
65
73
4
40
1
49
0.5
49
-0.25
49
0
49
-0.25
0
LTYPE
2
BORDER
70
0
3
__ __ . __ __ . __ __ . __ __ . __ __ . __ _
72
65
73
6
40
1.75
49
0.5
49
-0.25
49
0.5
49
-0.25
49
0
49
-0.25
0
LTYPE
2
DIVIDE
70
0
3
__ . . __ . . __ . . __ . . __ . . __ . . __
72
65
73
6
40
1.25
49
0.5
49
-0.25
49
0
49
-0.25
49
0
49
-0.25
0
LTYPE
2
DOTS
70
0
3
close
72
65
73
2
40
0.1
49
0.05
49
-0.05
0
ENDTAB
0
TABLE
2
LAYER
70
10
0
LAYER
2
1
70
0
62
7
6
CONTINUOUS
0
LAYER
2
2
70
0
62
7
6
CONTINUOUS
0
LAYER
2
3
70
0
62
7
6
CONTINUOUS
0
LAYER
2
4
70
0
62
7
6
CONTINUOUS
0
LAYER
2
5
70
0
62
7
6
CONTINUOUS
0
LAYER
2
6
70
0
62
7
6
CONTINUOUS
0
LAYER
2
7
70
0
62
7
6
CONTINUOUS
0
LAYER
2
8
70
0
62
7
6
CONTINUOUS
0
LAYER
2
9
70
0
62
7
6
CONTINUOUS
0
LAYER
2
10
70
0
62
7
6
CONTINUOUS
0
ENDTAB
0
ENDSEC
0
SECTION
2
ENTITIES
0
ARC
8
1
62
7
10
108.018000
20
0.000000
40
108.018000
50
160.532155
51
199.467845
0
ARC
8
1
62
7
10
234.207700
20
0.000000
40
228.998100
50
171.208473
51
188.791527
0
LINE
8
1
62
7
10
7.900100
20
35.000000
11
7.900100
21
36.000000
0
LINE
8
1
62
7
10
7.900100
20
-35.000000
11
7.900100
21
-36.000000
0
LINE
8
1
62
7
10
6.175532
20
36.000000
11
7.900100
21
36.000000
0
LINE
8
1
62
7
10
6.175532
20
36.000000
11
6.175532
21
36.000000
0
LINE
8
1
62
7
10
6.175532
20
-36.000000
11
7.900100
21
-36.000000
0
LINE
8
1
62
7
10
6.175532
20
-36.000000
11
6.175532
21
-36.000000
0
ARC
8
1
62
7
10
75.947000
20
0.000000
40
70.587400
50
150.274897
51
209.725103
0
ARC
8
1
62
7
10
442.782000
20
0.000000
40
427.871600
50
175.307949
51
184.692051
0
LINE
8
1
62
7
10
14.647889
20
35.000000
11
16.344307
21
35.000000
0
LINE
8
1
62
7
10
14.647889
20
35.000000
11
14.647889
21
35.000000
0
LINE
8
1
62
7
10
14.647889
20
-35.000000
11
16.344307
21
-35.000000
0
LINE
8
1
62
7
10
14.647889
20
-35.000000
11
14.647889
21
-35.000000
0
ARC
8
1
62
7
10
70.809700
20
0.000000
40
53.911600
50
146.188216
51
213.811784
0
LINE
8
1
62
7
10
26.016167
20
30.000000
11
26.016167
21
35.000000
0
LINE
8
1
62
7
10
26.016167
20
-30.000000
11
26.016167
21
-35.000000
0
LINE
8
1
62
7
10
16.344307
20
35.000000
11
26.016167
21
35.000000
0
LINE
8
1
62
7
10
16.344307
20
35.000000
11
16.344307
21
35.000000
0
LINE
8
1
62
7
10
16.344307
20
-35.000000
11
26.016167
21
-35.000000
0
LINE
8
1
62
7
10
16.344307
20
-35.000000
11
16.344307
21
-35.000000
0
ARC
8
1
62
7
10
-369.836800
20
0.000000
40
397.608100
50
355.383771
51
4.616229
0
ARC
8
1
62
7
10
317.288200
20
0.000000
40
287.813800
50
173.616486
51
186.383514
0
LINE
8
1
62
7
10
26.481508
20
32.000000
11
31.258860
21
32.000000
0
LINE
8
1
62
7
10
26.481508
20
32.000000
11
26.481508
21
32.000000
0
LINE
8
1
62
7
10
26.481508
20
-32.000000
11
31.258860
21
-32.000000
0
LINE
8
1
62
7
10
26.481508
20
-32.000000
11
26.481508
21
-32.000000
0
ARC
8
1
62
7
10
-109.678300
20
0.000000
40
144.460100
50
348.014169
51
11.985831
0
ARC
8
1
62
7
10
180.940400
20
0.000000
40
144.460100
50
168.014169
51
191.985831
0
LINE
8
1
62
7
10
31.632423
20
30.000000
11
39.629677
21
30.000000
0
LINE
8
1
62
7
10
31.632423
20
30.000000
11
31.632423
21
30.000000
0
LINE
8
1
62
7
10
31.632423
20
-30.000000
11
39.629677
21
-30.000000
0
LINE
8
1
62
7
10
31.632423
20
-30.000000
11
31.632423
21
-30.000000
0
ARC
8
1
62
7
10
376.246100
20
0.000000
40
334.443000
50
174.853572
51
185.146428
0
ARC
8
1
62
7
10
-483.734700
20
0.000000
40
529.390200
50
356.751367
51
3.248633
0
LINE
8
1
62
7
10
43.151338
20
30.000000
11
44.804782
21
30.000000
0
LINE
8
1
62
7
10
43.151338
20
30.000000
11
43.151338
21
30.000000
0
LINE
8
1
62
7
10
43.151338
20
-30.000000
11
44.804782
21
-30.000000
0
LINE
8
1
62
7
10
43.151338
20
-30.000000
11
43.151338
21
-30.000000
0
ARC
8
1
62
7
10
123.326400
20
0.000000
40
76.670900
50
156.965661
51
203.034339
0
ARC
8
1
62
7
10
-148.465400
20
0.000000
40
205.284300
50
351.596770
51
8.403230
0
LINE
8
1
62
7
10
52.768432
20
30.000000
11
54.614988
21
30.000000
0
LINE
8
1
62
7
10
52.768432
20
30.000000
11
52.768432
21
30.000000
0
LINE
8
1
62
7
10
52.768432
20
-30.000000
11
54.614988
21
-30.000000
0
LINE
8
1
62
7
10
52.768432
20
-30.000000
11
52.768432
21
-30.000000
0
ARC
8
1
62
7
10
136.380700
20
0.000000
40
62.965100
50
151.545911
51
208.454089
0
ARC
8
1
62
7
10
198.043700
20
0.000000
40
120.102300
50
165.535088
51
194.464912
0
LINE
8
1
62
7
10
81.021836
20
30.000000
11
81.748548
21
30.000000
0
LINE
8
1
62
7
10
81.021836
20
30.000000
11
81.021836
21
30.000000
0
LINE
8
1
62
7
10
81.021836
20
-30.000000
11
81.748548
21
-30.000000
0
LINE
8
1
62
7
10
81.021836
20
-30.000000
11
81.021836
21
-30.000000
0
ARC
8
1
62
7
10
109.848000
20
0.000000
40
31.756600
50
128.071864
51
231.928136
0
ARC
8
1
62
7
10
163.712100
20
0.000000
40
76.596100
50
160.950350
51
199.049650
0
LINE
8
1
62
7
10
90.265313
20
25.000000
11
91.310701
21
25.000000
0
LINE
8
1
62
7
10
90.265313
20
25.000000
11
90.265313
21
25.000000
0
LINE
8
1
62
7
10
90.265313
20
-25.000000
11
91.310701
21
-25.000000
0
LINE
8
1
62
7
10
90.265313
20
-25.000000
11
90.265313
21
-25.000000
0
ARC
8
1
62
7
10
111.640200
20
0.000000
40
23.259900
50
127.310704
51
232.689296
0
LINE
8
1
62
7
10
97.541514
20
18.500000
11
97.541514
21
25.000000
0
LINE
8
1
62
7
10
97.541514
20
-18.500000
11
97.541514
21
-25.000000
0
LINE
8
1
62
7
10
91.310701
20
25.000000
11
97.541514
21
25.000000
0
LINE
8
1
62
7
10
91.310701
20
25.000000
11
91.310701
21
25.000000
0
LINE
8
1
62
7
10
91.310701
20
-25.000000
11
97.541514
21
-25.000000
0
LINE
8
1
62
7
10
91.310701
20
-25.000000
11
91.310701
21
-25.000000
0
LINE
8
1
62
7
10
99.319000
20
-17.807079
11
99.319000
21
17.807079
0
ARC
8
1
62
7
10
48.022200
20
0.000000
40
56.095500
50
342.893950
51
17.106050
0
LINE
8
1
62
7
10
101.636145
20
16.500000
11
101.636145
21
18.000000
0
LINE
8
1
62
7
10
101.636145
20
-16.500000
11
101.636145
21
-18.000000
0
ARC
8
1
62
7
10
136.406200
20
0.000000
40
31.334900
50
144.939620
51
215.060380
0
LINE
8
1
62
7
10
101.636145
20
18.000000
11
110.757107
21
18.000000
0
LINE
8
1
62
7
10
101.636145
20
18.000000
11
101.636145
21
18.000000
0
LINE
8
1
62
7
10
101.636145
20
-18.000000
11
110.757107
21
-18.000000
0
LINE
8
1
62
7
10
101.636145
20
-18.000000
11
101.636145
21
-18.000000
0
ARC
8
1
62
7
10
-58.310500
20
0.000000
40
170.787400
50
353.950122
51
6.049878
0
LINE
8
1
62
7
10
110.757107
20
18.000000
11
111.525703
21
18.000000
0
LINE
8
1
62
7
10
110.757107
20
18.000000
11
110.757107
21
18.000000
0
LINE
8
1
62
7
10
110.757107
20
-18.000000
11
111.525703
21
-18.000000
0
LINE
8
1
62
7
10
110.757107
20
-18.000000
11
110.757107
21
-18.000000
0
ARC
8
1
62
7
10
60.466800
20
0.000000
40
54.994200
50
340.342360
51
19.657640
0
LINE
8
1
62
7
10
112.255911
20
18.500000
11
112.255911
21
20.000000
0
LINE
8
1
62
7
10
112.255911
20
-18.500000
11
112.255911
21
-20.000000
0
ARC
8
1
62
7
10
335.481200
20
0.000000
40
217.665200
50
174.727985
51
185.272015
0
LINE
8
1
62
7
10
112.255911
20
20.000000
11
118.736790
21
20.000000
0
LINE
8
1
62
7
10
112.255911
20
20.000000
11
112.255911
21
20.000000
0
LINE
8
1
62
7
10
112.255911
20
-20.000000
11
118.736790
21
-20.000000
0
LINE
8
1
62
7
10
112.255911
20
-20.000000
11
112.255911
21
-20.000000
0
ARC
8
1
62
7
10
191.373444
20
0.000000
40
73.407444
50
163.376911
51
196.623089
0
ARC
8
1
62
7
10
53.810468
20
0.000000
40
72.155532
50
343.079892
51
16.920108
0
LINE
8
1
62
7
10
121.033890
20
21.000000
11
122.842495
21
21.000000
0
LINE
8
1
62
7
10
121.033890
20
21.000000
11
121.033890
21
21.000000
0
LINE
8
1
62
7
10
121.033890
20
-21.000000
11
122.842495
21
-21.000000
0
LINE
8
1
62
7
10
121.033890
20
-21.000000
11
121.033890
21
-21.000000
0
LINE
8
1
62
7
10
163.030000
20
-22.404484
11
163.030000
21
22.404484
0
LINE
8
1
62
7
10
164.480000
20
-22.404484
11
164.480000
21
22.404484
0
LINE
8
1
62
7
10
163.030000
20
22.404484
11
164.480000
21
22.404484
0
LINE
8
1
62
7
10
163.030000
20
22.404484
11
163.030000
21
22.404484
0
LINE
8
1
62
7
10
163.030000
20
-22.404484
11
164.480000
21
-22.404484
0
LINE
8
1
62
7
10
163.030000
20
-22.404484
11
163.030000
21
-22.404484
0
LINE
8
1
62
7
10
165.480000
20
-23.187705
11
165.480000
21
23.187705
0
LINE
8
2
62
7
10
3.844036
20
-28.560000
11
6.949480
21
-28.175008
0
LINE
8
2
62
7
10
6.949480
20
-28.175008
11
11.009648
21
-27.671670
0
LINE
8
2
62
7
10
11.009648
20
-27.671670
11
15.736172
21
-26.570042
0
LINE
8
2
62
7
10
15.736172
20
-26.570042
11
22.991028
21
-24.896490
0
LINE
8
2
62
7
10
22.991028
20
-24.896490
11
27.006860
21
-24.643678
0
LINE
8
2
62
7
10
27.006860
20
-24.643678
11
30.525830
21
-24.578988
0
LINE
8
2
62
7
10
30.525830
20
-24.578988
11
32.668534
21
-24.619086
0
LINE
8
2
62
7
10
32.668534
20
-24.619086
11
38.682051
21
-25.125336
0
LINE
8
2
62
7
10
38.682051
20
-25.125336
11
42.843264
21
-26.356572
0
LINE
8
2
62
7
10
42.843264
20
-26.356572
11
44.987396
21
-26.588138
0
LINE
8
2
62
7
10
44.987396
20
-26.588138
11
51.834980
21
-27.702054
0
LINE
8
2
62
7
10
51.834980
20
-27.702054
11
54.951778
21
-27.624180
0
LINE
8
2
62
7
10
54.951778
20
-27.624180
11
78.636414
21
-25.103809
0
LINE
8
2
62
7
10
78.636414
20
-25.103809
11
80.493592
21
-24.627921
0
LINE
8
2
62
7
10
80.493592
20
-24.627921
11
87.478980
21
-22.541264
0
LINE
8
2
62
7
10
87.478980
20
-22.541264
11
90.066605
21
-21.054775
0
LINE
8
2
62
7
10
90.066605
20
-21.054775
11
96.240450
21
-17.431886
0
LINE
8
2
62
7
10
96.240450
20
-17.431886
11
99.319000
21
-16.568056
0
LINE
8
2
62
7
10
99.319000
20
-16.568056
11
101.827729
21
-15.864116
0
LINE
8
2
62
7
10
101.827729
20
-15.864116
11
109.283789
21
-15.692380
0
LINE
8
2
62
7
10
109.283789
20
-15.692380
11
111.769201
21
-15.531619
0
LINE
8
2
62
7
10
111.769201
20
-15.531619
11
113.316293
21
-15.208325
0
LINE
8
2
62
7
10
113.316293
20
-15.208325
11
118.345657
21
-15.175482
0
LINE
8
2
62
7
10
118.345657
20
-15.175482
11
119.290466
21
-15.208414
0
LINE
8
2
62
7
10
119.290466
20
-15.208414
11
123.997882
21
-14.908121
0
LINE
8
2
62
7
10
123.997882
20
-14.908121
11
163.030000
21
-0.682902
0
LINE
8
2
62
7
10
163.030000
20
-0.682902
11
164.480000
21
-0.348839
0
LINE
8
2
62
7
10
164.480000
20
-0.348839
11
165.480000
21
0.015610
0
LINE
8
2
62
7
10
1.691302
20
-19.040000
11
5.973696
21
-18.691418
0
LINE
8
2
62
7
10
5.973696
20
-18.691418
11
7.838021
21
-18.540442
0
LINE
8
2
62
7
10
7.838021
20
-18.540442
11
15.265013
21
-17.416425
0
LINE
8
2
62
7
10
15.265013
20
-17.416425
11
19.573042
21
-16.770971
0
LINE
8
2
62
7
10
19.573042
20
-16.770971
11
27.431654
21
-16.430959
0
LINE
8
2
62
7
10
27.431654
20
-16.430959
11
29.941908
21
-16.397932
0
LINE
8
2
62
7
10
29.941908
20
-16.397932
11
33.843178
21
-16.440982
0
LINE
8
2
62
7
10
33.843178
20
-16.440982
11
37.441771
21
-16.639230
0
LINE
8
2
62
7
10
37.441771
20
-16.639230
11
42.263397
21
-17.540653
0
LINE
8
2
62
7
10
42.263397
20
-17.540653
11
45.357650
21
-17.755815
0
LINE
8
2
62
7
10
45.357650
20
-17.755815
11
48.826033
21
-18.114144
0
LINE
8
2
62
7
10
48.826033
20
-18.114144
11
56.026506
21
-18.019550
0
LINE
8
2
62
7
10
56.026506
20
-18.019550
11
75.688009
21
-16.763087
0
LINE
8
2
62
7
10
75.688009
20
-16.763087
11
79.041448
21
-16.218089
0
LINE
8
2
62
7
10
79.041448
20
-16.218089
11
82.203996
21
-15.629802
0
LINE
8
2
62
7
10
82.203996
20
-15.629802
11
88.316559
21
-13.508330
0
LINE
8
2
62
7
10
88.316559
20
-13.508330
11
91.868725
21
-12.252009
0
LINE
8
2
62
7
10
91.868725
20
-12.252009
11
99.319000
21
-10.942515
0
LINE
8
2
62
7
10
99.319000
20
-10.942515
11
103.170392
21
-10.265577
0
LINE
8
2
62
7
10
103.170392
20
-10.265577
11
106.777701
21
-10.199412
0
LINE
8
2
62
7
10
106.777701
20
-10.199412
11
112.185857
21
-9.966349
0
LINE
8
2
62
7
10
112.185857
20
-9.966349
11
114.609588
21
-9.639529
0
LINE
8
2
62
7
10
114.609588
20
-9.639529
11
118.028095
21
-9.606571
0
LINE
8
2
62
7
10
118.028095
20
-9.606571
11
118.498079
21
-9.612627
0
LINE
8
2
62
7
10
118.498079
20
-9.612627
11
125.172516
21
-9.323325
0
LINE
8
2
62
7
10
125.172516
20
-9.323325
11
163.030000
21
-0.450553
0
LINE
8
2
62
7
10
163.030000
20
-0.450553
11
164.480000
21
-0.231145
0
LINE
8
2
62
7
10
164.480000
20
-0.231145
11
165.480000
21
0.003228
0
LINE
8
2
62
7
10
0.420333
20
-9.520000
11
5.399302
21
-9.319155
0
LINE
8
2
62
7
10
5.399302
20
-9.319155
11
5.974414
21
-9.296144
0
LINE
8
2
62
7
10
5.974414
20
-9.296144
11
14.997314
21
-8.623701
0
LINE
8
2
62
7
10
14.997314
20
-8.623701
11
17.561972
21
-8.434455
0
LINE
8
2
62
7
10
17.561972
20
-8.434455
11
27.686483
21
-8.212227
0
LINE
8
2
62
7
10
27.686483
20
-8.212227
11
29.591214
21
-8.199261
0
LINE
8
2
62
7
10
29.591214
20
-8.199261
11
34.547474
21
-8.224759
0
LINE
8
2
62
7
10
34.547474
20
-8.224759
11
36.718012
21
-8.283922
0
LINE
8
2
62
7
10
36.718012
20
-8.283922
11
41.917737
21
-8.755918
0
LINE
8
2
62
7
10
41.917737
20
-8.755918
11
45.581004
21
-8.880829
0
LINE
8
2
62
7
10
45.581004
20
-8.880829
11
47.180998
21
-8.961286
0
LINE
8
2
62
7
10
47.180998
20
-8.961286
11
56.625570
21
-8.907177
0
LINE
8
2
62
7
10
56.625570
20
-8.907177
11
73.976014
21
-8.382064
0
LINE
8
2
62
7
10
73.976014
20
-8.382064
11
78.211297
21
-8.047210
0
LINE
8
2
62
7
10
78.211297
20
-8.047210
11
79.106984
21
-7.966904
0
LINE
8
2
62
7
10
79.106984
20
-7.966904
11
87.401064
21
-6.602146
0
LINE
8
2
62
7
10
87.401064
20
-6.602146
11
89.247724
21
-6.292850
0
LINE
8
2
62
7
10
89.247724
20
-6.292850
11
99.319000
21
-5.435796
0
LINE
8
2
62
7
10
99.319000
20
-5.435796
11
103.890214
21
-5.046791
0
LINE
8
2
62
7
10
103.890214
20
-5.046791
11
105.477818
21
-5.031019
0
LINE
8
2
62
7
10
105.477818
20
-5.031019
11
112.407131
21
-4.881235
0
LINE
8
2
62
7
10
112.407131
20
-4.881235
11
115.260497
21
-4.691786
0
LINE
8
2
62
7
10
115.260497
20
-4.691786
11
117.866225
21
-4.675672
0
LINE
8
2
62
7
10
117.866225
20
-4.675672
11
118.093609
21
-4.676536
0
LINE
8
2
62
7
10
118.093609
20
-4.676536
11
125.779292
21
-4.499717
0
LINE
8
2
62
7
10
125.779292
20
-4.499717
11
163.030000
21
-0.223019
0
LINE
8
2
62
7
10
163.030000
20
-0.223019
11
164.480000
21
-0.114279
0
LINE
8
2
62
7
10
164.480000
20
-0.114279
11
165.480000
21
0.000530
0
LINE
8
2
62
7
10
0.000000
20
0.000000
11
5.209600
21
0.000000
0
LINE
8
2
62
7
10
5.209600
20
0.000000
11
5.359600
21
0.000000
0
LINE
8
2
62
7
10
5.359600
20
0.000000
11
14.910400
21
0.000000
0
LINE
8
2
62
7
10
14.910400
20
0.000000
11
16.898100
21
0.000000
0
LINE
8
2
62
7
10
16.898100
20
0.000000
11
27.771300
21
0.000000
0
LINE
8
2
62
7
10
27.771300
20
0.000000
11
29.474400
21
0.000000
0
LINE
8
2
62
7
10
29.474400
20
0.000000
11
34.781800
21
0.000000
0
LINE
8
2
62
7
10
34.781800
20
0.000000
11
36.480300
21
0.000000
0
LINE
8
2
62
7
10
36.480300
20
0.000000
11
41.803100
21
0.000000
0
LINE
8
2
62
7
10
41.803100
20
0.000000
11
45.655500
21
0.000000
0
LINE
8
2
62
7
10
45.655500
20
0.000000
11
46.655500
21
0.000000
0
LINE
8
2
62
7
10
46.655500
20
0.000000
11
56.818900
21
0.000000
0
LINE
8
2
62
7
10
56.818900
20
0.000000
11
73.415600
21
0.000000
0
LINE
8
2
62
7
10
73.415600
20
0.000000
11
77.941400
21
0.000000
0
LINE
8
2
62
7
10
77.941400
20
0.000000
11
78.091400
21
0.000000
0
LINE
8
2
62
7
10
78.091400
20
0.000000
11
87.116000
21
0.000000
0
LINE
8
2
62
7
10
87.116000
20
0.000000
11
88.380300
21
0.000000
0
LINE
8
2
62
7
10
88.380300
20
0.000000
11
99.319000
21
0.000000
0
LINE
8
2
62
7
10
99.319000
20
0.000000
11
104.117700
21
0.000000
0
LINE
8
2
62
7
10
104.117700
20
0.000000
11
105.071300
21
0.000000
0
LINE
8
2
62
7
10
105.071300
20
0.000000
11
112.476900
21
0.000000
0
LINE
8
2
62
7
10
112.476900
20
0.000000
11
115.461000
21
0.000000
0
LINE
8
2
62
7
10
115.461000
20
0.000000
11
117.816000
21
0.000000
0
LINE
8
2
62
7
10
117.816000
20
0.000000
11
117.966000
21
0.000000
0
LINE
8
2
62
7
10
117.966000
20
0.000000
11
125.966000
21
0.000000
0
LINE
8
2
62
7
10
125.966000
20
0.000000
11
163.030000
21
0.000000
0
LINE
8
2
62
7
10
163.030000
20
0.000000
11
164.480000
21
0.000000
0
LINE
8
2
62
7
10
164.480000
20
0.000000
11
165.480000
21
0.000000
0
LINE
8
2
62
7
10
0.420333
20
9.520000
11
5.399302
21
9.319155
0
LINE
8
2
62
7
10
5.399302
20
9.319155
11
5.974414
21
9.296144
0
LINE
8
2
62
7
10
5.974414
20
9.296144
11
14.997314
21
8.623701
0
LINE
8
2
62
7
10
14.997314
20
8.623701
11
17.561972
21
8.434455
0
LINE
8
2
62
7
10
17.561972
20
8.434455
11
27.686483
21
8.212227
0
LINE
8
2
62
7
10
27.686483
20
8.212227
11
29.591214
21
8.199261
0
LINE
8
2
62
7
10
29.591214
20
8.199261
11
34.547474
21
8.224759
0
LINE
8
2
62
7
10
34.547474
20
8.224759
11
36.718012
21
8.283922
0
LINE
8
2
62
7
10
36.718012
20
8.283922
11
41.917737
21
8.755918
0
LINE
8
2
62
7
10
41.917737
20
8.755918
11
45.581004
21
8.880829
0
LINE
8
2
62
7
10
45.581004
20
8.880829
11
47.180998
21
8.961286
0
LINE
8
2
62
7
10
47.180998
20
8.961286
11
56.625570
21
8.907177
0
LINE
8
2
62
7
10
56.625570
20
8.907177
11
73.976014
21
8.382064
0
LINE
8
2
62
7
10
73.976014
20
8.382064
11
78.211297
21
8.047210
0
LINE
8
2
62
7
10
78.211297
20
8.047210
11
79.106984
21
7.966904
0
LINE
8
2
62
7
10
79.106984
20
7.966904
11
87.401064
21
6.602146
0
LINE
8
2
62
7
10
87.401064
20
6.602146
11
89.247724
21
6.292850
0
LINE
8
2
62
7
10
89.247724
20
6.292850
11
99.319000
21
5.435796
0
LINE
8
2
62
7
10
99.319000
20
5.435796
11
103.890214
21
5.046791
0
LINE
8
2
62
7
10
103.890214
20
5.046791
11
105.477818
21
5.031019
0
LINE
8
2
62
7
10
105.477818
20
5.031019
11
112.407131
21
4.881235
0
LINE
8
2
62
7
10
112.407131
20
4.881235
11
115.260497
21
4.691786
0
LINE
8
2
62
7
10
115.260497
20
4.691786
11
117.866225
21
4.675672
0
LINE
8
2
62
7
10
117.866225
20
4.675672
11
118.093609
21
4.676536
0
LINE
8
2
62
7
10
118.093609
20
4.676536
11
125.779292
21
4.499717
0
LINE
8
2
62
7
10
125.779292
20
4.499717
11
163.030000
21
0.223019
0
LINE
8
2
62
7
10
163.030000
20
0.223019
11
164.480000
21
0.114279
0
LINE
8
2
62
7
10
164.480000
20
0.114279
11
165.480000
21
-0.000530
0
LINE
8
2
62
7
10
1.691302
20
19.040000
11
5.973696
21
18.691418
0
LINE
8
2
62
7
10
5.973696
20
18.691418
11
7.838021
21
18.540442
0
LINE
8
2
62
7
10
7.838021
20
18.540442
11
15.265013
21
17.416425
0
LINE
8
2
62
7
10
15.265013
20
17.416425
11
19.573042
21
16.770971
0
LINE
8
2
62
7
10
19.573042
20
16.770971
11
27.431654
21
16.430959
0
LINE
8
2
62
7
10
27.431654
20
16.430959
11
29.941908
21
16.397932
0
LINE
8
2
62
7
10
29.941908
20
16.397932
11
33.843178
21
16.440982
0
LINE
8
2
62
7
10
33.843178
20
16.440982
11
37.441771
21
16.639230
0
LINE
8
2
62
7
10
37.441771
20
16.639230
11
42.263397
21
17.540653
0
LINE
8
2
62
7
10
42.263397
20
17.540653
11
45.357650
21
17.755815
0
LINE
8
2
62
7
10
45.357650
20
17.755815
11
48.826033
21
18.114144
0
LINE
8
2
62
7
10
48.826033
20
18.114144
11
56.026506
21
18.019550
0
LINE
8
2
62
7
10
56.026506
20
18.019550
11
75.688009
21
16.763087
0
LINE
8
2
62
7
10
75.688009
20
16.763087
11
79.041448
21
16.218089
0
LINE
8
2
62
7
10
79.041448
20
16.218089
11
82.203996
21
15.629802
0
LINE
8
2
62
7
10
82.203996
20
15.629802
11
88.316559
21
13.508330
0
LINE
8
2
62
7
10
88.316559
20
13.508330
11
91.868725
21
12.252009
0
LINE
8
2
62
7
10
91.868725
20
12.252009
11
99.319000
21
10.942515
0
LINE
8
2
62
7
10
99.319000
20
10.942515
11
103.170392
21
10.265577
0
LINE
8
2
62
7
10
103.170392
20
10.265577
11
106.777701
21
10.199412
0
LINE
8
2
62
7
10
106.777701
20
10.199412
11
112.185857
21
9.966349
0
LINE
8
2
62
7
10
112.185857
20
9.966349
11
114.609588
21
9.639529
0
LINE
8
2
62
7
10
114.609588
20
9.639529
11
118.028095
21
9.606571
0
LINE
8
2
62
7
10
118.028095
20
9.606571
11
118.498079
21
9.612627
0
LINE
8
2
62
7
10
118.498079
20
9.612627
11
125.172516
21
9.323325
0
LINE
8
2
62
7
10
125.172516
20
9.323325
11
163.030000
21
0.450553
0
LINE
8
2
62
7
10
163.030000
20
0.450553
11
164.480000
21
0.231145
0
LINE
8
2
62
7
10
164.480000
20
0.231145
11
165.480000
21
-0.003228
0
LINE
8
2
62
7
10
3.844036
20
28.560000
11
6.949480
21
28.175008
0
LINE
8
2
62
7
10
6.949480
20
28.175008
11
11.009648
21
27.671670
0
LINE
8
2
62
7
10
11.009648
20
27.671670
11
15.736172
21
26.570042
0
LINE
8
2
62
7
10
15.736172
20
26.570042
11
22.991028
21
24.896490
0
LINE
8
2
62
7
10
22.991028
20
24.896490
11
27.006860
21
24.643678
0
LINE
8
2
62
7
10
27.006860
20
24.643678
11
30.525830
21
24.578988
0
LINE
8
2
62
7
10
30.525830
20
24.578988
11
32.668534
21
24.619086
0
LINE
8
2
62
7
10
32.668534
20
24.619086
11
38.682051
21
25.125336
0
LINE
8
2
62
7
10
38.682051
20
25.125336
11
42.843264
21
26.356572
0
LINE
8
2
62
7
10
42.843264
20
26.356572
11
44.987396
21
26.588138
0
LINE
8
2
62
7
10
44.987396
20
26.588138
11
51.834980
21
27.702054
0
LINE
8
2
62
7
10
51.834980
20
27.702054
11
54.951778
21
27.624180
0
LINE
8
2
62
7
10
54.951778
20
27.624180
11
78.636414
21
25.103809
0
LINE
8
2
62
7
10
78.636414
20
25.103809
11
80.493592
21
24.627921
0
LINE
8
2
62
7
10
80.493592
20
24.627921
11
87.478980
21
22.541264
0
LINE
8
2
62
7
10
87.478980
20
22.541264
11
90.066605
21
21.054775
0
LINE
8
2
62
7
10
90.066605
20
21.054775
11
96.240450
21
17.431886
0
LINE
8
2
62
7
10
96.240450
20
17.431886
11
99.319000
21
16.568056
0
LINE
8
2
62
7
10
99.319000
20
16.568056
11
101.827729
21
15.864116
0
LINE
8
2
62
7
10
101.827729
20
15.864116
11
109.283789
21
15.692380
0
LINE
8
2
62
7
10
109.283789
20
15.692380
11
111.769201
21
15.531619
0
LINE
8
2
62
7
10
111.769201
20
15.531619
11
113.316293
21
15.208325
0
LINE
8
2
62
7
10
113.316293
20
15.208325
11
118.345657
21
15.175482
0
LINE
8
2
62
7
10
118.345657
20
15.175482
11
119.290466
21
15.208414
0
LINE
8
2
62
7
10
119.290466
20
15.208414
11
123.997882
21
14.908121
0
LINE
8
2
62
7
10
123.997882
20
14.908121
11
163.030000
21
0.682902
0
LINE
8
2
62
7
10
163.030000
20
0.682902
11
164.480000
21
0.348839
0
LINE
8
2
62
7
10
164.480000
20
0.348839
11
165.480000
21
-0.015610
0
LINE
8
2
62
7
10
5.974683
20
-35.426683
11
7.909282
21
-35.059317
0
LINE
8
2
62
7
10
3.195680
20
-26.080062
11
6.642203
21
-25.574882
0
LINE
8
2
62
7
10
6.642203
20
-25.574882
11
9.933878
21
-24.996975
0
LINE
8
2
62
7
10
9.933878
20
-24.996975
11
15.561385
21
-23.593484
0
LINE
8
2
62
7
10
15.561385
20
-23.593484
11
21.634054
21
-22.095620
0
LINE
8
2
62
7
10
21.634054
20
-22.095620
11
27.196044
21
-21.380404
0
LINE
8
2
62
7
10
27.196044
20
-21.380404
11
30.255323
21
-21.187518
0
LINE
8
2
62
7
10
30.255323
20
-21.187518
11
33.244815
21
-21.016747
0
LINE
8
2
62
7
10
33.244815
20
-21.016747
11
38.038560
21
-21.160923
0
LINE
8
2
62
7
10
38.038560
20
-21.160923
11
42.521426
21
-21.908043
0
LINE
8
2
62
7
10
42.521426
20
-21.908043
11
45.196094
21
-22.049932
0
LINE
8
2
62
7
10
45.196094
20
-22.049932
11
49.986892
21
-22.354944
0
LINE
8
2
62
7
10
49.986892
20
-22.354944
11
55.634283
21
-22.021877
0
LINE
8
2
62
7
10
55.634283
20
-22.021877
11
76.360472
21
-19.030924
0
LINE
8
2
62
7
10
76.360472
20
-19.030924
11
79.353010
21
-18.359809
0
LINE
8
2
62
7
10
79.353010
20
-18.359809
11
83.188142
21
-17.254959
0
LINE
8
2
62
7
10
83.188142
20
-17.254959
11
88.577244
21
-14.890130
0
LINE
8
2
62
7
10
88.577244
20
-14.890130
11
92.454545
21
-13.150422
0
LINE
8
2
62
7
10
92.454545
20
-13.150422
11
99.319000
21
-11.138932
0
LINE
8
2
62
7
10
99.319000
20
-11.138932
11
103.219919
21
-9.995847
0
LINE
8
2
62
7
10
103.219919
20
-9.995847
11
106.617486
21
-9.721549
0
LINE
8
2
62
7
10
106.617486
20
-9.721549
11
112.230823
21
-9.164776
0
LINE
8
2
62
7
10
112.230823
20
-9.164776
11
114.793082
21
-8.545005
0
LINE
8
2
62
7
10
114.793082
20
-8.545005
11
117.974155
21
-8.296070
0
LINE
8
2
62
7
10
117.974155
20
-8.296070
11
118.360060
21
-8.255713
0
LINE
8
2
62
7
10
118.360060
20
-8.255713
11
125.443379
21
-7.548581
0
LINE
8
2
62
7
10
125.443379
20
-7.548581
11
163.030000
21
4.591330
0
LINE
8
2
62
7
10
163.030000
20
4.591330
11
164.480000
21
4.889647
0
LINE
8
2
62
7
10
164.480000
20
4.889647
11
165.480000
21
5.212632
0
LINE
8
2
62
7
10
1.295406
20
-16.678618
11
5.783839
21
-16.207082
0
LINE
8
2
62
7
10
5.783839
20
-16.207082
11
7.200903
21
-16.017339
0
LINE
8
2
62
7
10
7.200903
20
-16.017339
11
15.161614
21
-14.659873
0
LINE
8
2
62
7
10
15.161614
20
-14.659873
11
18.761824
21
-14.052728
0
LINE
8
2
62
7
10
18.761824
20
-14.052728
11
27.555189
21
-13.107552
0
LINE
8
2
62
7
10
27.555189
20
-13.107552
11
29.767284
21
-12.980989
0
LINE
8
2
62
7
10
29.767284
20
-12.980989
11
34.222782
21
-12.696417
0
LINE
8
2
62
7
10
34.222782
20
-12.696417
11
37.039607
21
-12.699698
0
LINE
8
2
62
7
10
37.039607
20
-12.699698
11
42.057448
21
-13.040908
0
LINE
8
2
62
7
10
42.057448
20
-13.040908
11
45.493476
21
-13.096625
0
LINE
8
2
62
7
10
45.493476
20
-13.096625
11
47.785621
21
-13.115548
0
LINE
8
2
62
7
10
47.785621
20
-13.115548
11
56.427818
21
-12.665424
0
LINE
8
2
62
7
10
56.427818
20
-12.665424
11
74.331809
21
-10.702287
0
LINE
8
2
62
7
10
74.331809
20
-10.702287
11
78.370267
21
-10.140604
0
LINE
8
2
62
7
10
78.370267
20
-10.140604
11
79.672526
21
-9.895574
0
LINE
8
2
62
7
10
79.672526
20
-9.895574
11
87.528073
21
-7.934521
0
LINE
8
2
62
7
10
87.528073
20
-7.934521
11
89.591458
21
-7.407828
0
LINE
8
2
62
7
10
89.591458
20
-7.407828
11
99.319000
21
-5.491494
0
LINE
8
2
62
7
10
99.319000
20
-5.491494
11
103.930164
21
-4.583091
0
LINE
8
2
62
7
10
103.930164
20
-4.583091
11
105.392164
21
-4.472752
0
LINE
8
2
62
7
10
105.392164
20
-4.472752
11
112.432262
21
-3.904514
0
LINE
8
2
62
7
10
112.432262
20
-3.904514
11
115.356249
21
-3.392697
0
LINE
8
2
62
7
10
115.356249
20
-3.392697
11
117.839442
21
-3.194424
0
LINE
8
2
62
7
10
117.839442
20
-3.194424
11
118.024844
21
-3.171654
0
LINE
8
2
62
7
10
118.024844
20
-3.171654
11
125.907464
21
-2.516989
0
LINE
8
2
62
7
10
125.907464
20
-2.516989
11
163.030000
21
4.825492
0
LINE
8
2
62
7
10
163.030000
20
4.825492
11
164.480000
21
5.011468
0
LINE
8
2
62
7
10
164.480000
20
5.011468
11
165.480000
21
5.209259
0
LINE
8
2
62
7
10
0.241856
20
-7.224348
11
5.313492
21
-6.897192
0
LINE
8
2
62
7
10
5.313492
20
-6.897192
11
5.693892
21
-6.861621
0
LINE
8
2
62
7
10
5.693892
20
-6.861621
11
14.952212
21
-5.981531
0
LINE
8
2
62
7
10
14.952212
20
-5.981531
11
17.207720
21
-5.769609
0
LINE
8
2
62
7
10
17.207720
20
-5.769609
11
27.741492
21
-4.868577
0
LINE
8
2
62
7
10
27.741492
20
-4.868577
11
29.514076
21
-4.778793
0
LINE
8
2
62
7
10
29.514076
20
-4.778793
11
34.714241
21
-4.417540
0
LINE
8
2
62
7
10
34.714241
20
-4.417540
11
36.546372
21
-4.368652
0
LINE
8
2
62
7
10
36.546372
20
-4.368652
11
41.829999
21
-4.241693
0
LINE
8
2
62
7
10
41.829999
20
-4.241693
11
45.639068
21
-4.171029
0
LINE
8
2
62
7
10
45.639068
20
-4.171029
11
46.766398
21
-4.122264
0
LINE
8
2
62
7
10
46.766398
20
-4.122264
11
56.786385
21
-3.653555
0
LINE
8
2
62
7
10
56.786385
20
-3.653555
11
73.458863
21
-2.333713
0
LINE
8
2
62
7
10
73.458863
20
-2.333713
11
77.959182
21
-2.066656
0
LINE
8
2
62
7
10
77.959182
20
-2.066656
11
78.157470
21
-2.047423
0
LINE
8
2
62
7
10
78.157470
20
-2.047423
11
87.127160
21
-1.307479
0
LINE
8
2
62
7
10
87.127160
20
-1.307479
11
88.411193
21
-1.198409
0
LINE
8
2
62
7
10
88.411193
20
-1.198409
11
99.319000
21
0.000112
0
LINE
8
2
62
7
10
99.319000
20
0.000112
11
104.115223
21
0.527109
0
LINE
8
2
62
7
10
104.115223
20
0.527109
11
105.076881
21
0.591362
0
LINE
8
2
62
7
10
105.076881
20
0.591362
11
112.473753
21
1.036748
0
LINE
8
2
62
7
10
112.473753
20
1.036748
11
115.444189
21
1.359681
0
LINE
8
2
62
7
10
115.444189
20
1.359681
11
117.821440
21
1.538945
0
LINE
8
2
62
7
10
117.821440
20
1.538945
11
117.980252
21
1.559584
0
LINE
8
2
62
7
10
117.980252
20
1.559584
11
125.927353
21
2.044845
0
LINE
8
2
62
7
10
125.927353
20
2.044845
11
163.030000
21
5.052508
0
LINE
8
2
62
7
10
163.030000
20
5.052508
11
164.480000
21
5.129430
0
LINE
8
2
62
7
10
164.480000
20
5.129430
11
165.480000
21
5.210494
0
LINE
8
2
62
7
10
0.024109
20
2.282067
11
5.222259
21
2.407855
0
LINE
8
2
62
7
10
5.222259
20
2.407855
11
5.401006
21
2.417403
0
LINE
8
2
62
7
10
5.401006
20
2.417403
11
14.918384
21
2.613855
0
LINE
8
2
62
7
10
14.918384
20
2.613855
11
16.963532
21
2.655332
0
LINE
8
2
62
7
10
16.963532
20
2.655332
11
27.757274
21
3.339667
0
LINE
8
2
62
7
10
27.757274
20
3.339667
11
29.494670
21
3.415808
0
LINE
8
2
62
7
10
29.494670
20
3.415808
11
34.731632
21
3.806845
0
LINE
8
2
62
7
10
34.731632
20
3.806845
11
36.533067
21
3.904182
0
LINE
8
2
62
7
10
36.533067
20
3.904182
11
41.833563
21
4.513875
0
LINE
8
2
62
7
10
41.833563
20
4.513875
11
45.634512
21
4.713952
0
LINE
8
2
62
7
10
45.634512
20
4.713952
11
46.807400
21
4.823859
0
LINE
8
2
62
7
10
46.807400
20
4.823859
11
56.752177
21
5.233556
0
LINE
8
2
62
7
10
56.752177
20
5.233556
11
73.708370
21
6.064892
0
LINE
8
2
62
7
10
73.708370
20
6.064892
11
78.090311
21
5.978871
0
LINE
8
2
62
7
10
78.090311
20
5.978871
11
78.660090
21
5.982970
0
LINE
8
2
62
7
10
78.660090
20
5.982970
11
87.298181
21
5.279730
0
LINE
8
2
62
7
10
87.298181
20
5.279730
11
88.956233
21
5.143985
0
LINE
8
2
62
7
10
88.956233
20
5.143985
11
99.319000
21
5.403930
0
LINE
8
2
62
7
10
99.319000
20
5.403930
11
103.845694
21
5.517480
0
LINE
8
2
62
7
10
103.845694
20
5.517480
11
105.578554
21
5.615352
0
LINE
8
2
62
7
10
105.578554
20
5.615352
11
112.375869
21
5.873623
0
LINE
8
2
62
7
10
112.375869
20
5.873623
11
115.134115
21
5.987207
0
LINE
8
2
62
7
10
115.134115
20
5.987207
11
117.903631
21
6.175803
0
LINE
8
2
62
7
10
117.903631
20
6.175803
11
118.190501
21
6.213681
0
LINE
8
2
62
7
10
118.190501
20
6.213681
11
125.579014
21
6.488405
0
LINE
8
2
62
7
10
125.579014
20
6.488405
11
163.030000
21
5.272233
0
LINE
8
2
62
7
10
163.030000
20
5.272233
11
164.480000
21
5.241370
0
LINE
8
2
62
7
10
164.480000
20
5.241370
11
165.480000
21
5.208896
0
LINE
8
2
62
7
10
0.650990
20
11.841177
11
5.511791
21
11.760572
0
LINE
8
2
62
7
10
5.511791
20
11.760572
11
6.348000
21
11.771159
0
LINE
8
2
62
7
10
6.348000
20
11.771159
11
15.059435
21
11.292185
0
LINE
8
2
62
7
10
15.059435
20
11.292185
11
18.059164
21
11.128411
0
LINE
8
2
62
7
10
18.059164
20
11.128411
11
27.604199
21
11.526224
0
LINE
8
2
62
7
10
27.604199
20
11.526224
11
29.708437
21
11.604444
0
LINE
8
2
62
7
10
29.708437
20
11.604444
11
34.284908
21
11.971432
0
LINE
8
2
62
7
10
34.284908
20
11.971432
11
36.995724
21
12.192240
0
LINE
8
2
62
7
10
36.995724
20
12.192240
11
42.066019
21
13.258718
0
LINE
8
2
62
7
10
42.066019
20
13.258718
11
45.481880
21
13.557129
0
LINE
8
2
62
7
10
45.481880
20
13.557129
11
47.928572
21
13.913824
0
LINE
8
2
62
7
10
47.928572
20
13.913824
11
56.327391
21
14.197063
0
LINE
8
2
62
7
10
56.327391
20
14.197063
11
75.107347
21
14.497585
0
LINE
8
2
62
7
10
75.107347
20
14.497585
11
78.774663
21
14.123004
0
LINE
8
2
62
7
10
78.774663
20
14.123004
11
81.295922
21
13.901816
0
LINE
8
2
62
7
10
81.295922
20
13.901816
11
88.084002
21
12.138917
0
LINE
8
2
62
7
10
88.084002
20
12.138917
11
91.304274
21
11.290397
0
LINE
8
2
62
7
10
91.304274
20
11.290397
11
99.319000
21
10.789753
0
LINE
8
2
62
7
10
99.319000
20
10.789753
11
103.116198
21
10.552559
0
LINE
8
2
62
7
10
103.116198
20
10.552559
11
106.965528
21
10.729529
0
LINE
8
2
62
7
10
106.965528
20
10.729529
11
112.134910
21
10.802688
0
LINE
8
2
62
7
10
112.134910
20
10.802688
11
114.402965
21
10.735554
0
LINE
8
2
62
7
10
114.402965
20
10.735554
11
118.092037
21
10.958614
0
LINE
8
2
62
7
10
118.092037
20
10.958614
11
118.664437
21
11.035363
0
LINE
8
2
62
7
10
118.664437
20
11.035363
11
124.844878
21
11.118436
0
LINE
8
2
62
7
10
124.844878
20
11.118436
11
163.030000
21
5.492353
0
LINE
8
2
62
7
10
163.030000
20
5.492353
11
164.480000
21
5.353139
0
LINE
8
2
62
7
10
164.480000
20
5.353139
11
165.480000
21
5.205802
0
LINE
8
2
62
7
10
2.152149
20
21.454833
11
6.194698
21
21.217931
0
LINE
8
2
62
7
10
6.194698
20
21.217931
11
8.601511
21
21.146304
0
LINE
8
2
62
7
10
8.601511
20
21.146304
11
15.389147
21
20.234996
0
LINE
8
2
62
7
10
15.389147
20
20.234996
11
20.566174
21
19.546067
0
LINE
8
2
62
7
10
20.566174
20
19.546067
11
27.283525
21
19.688785
0
LINE
8
2
62
7
10
27.283525
20
19.688785
11
30.154803
21
19.778675
0
LINE
8
2
62
7
10
30.154803
20
19.778675
11
33.382301
21
20.059531
0
LINE
8
2
62
7
10
33.382301
20
20.059531
11
37.950926
21
20.560420
0
LINE
8
2
62
7
10
37.950926
20
20.560420
11
42.528209
21
22.011124
0
LINE
8
2
62
7
10
42.528209
20
22.011124
11
45.183870
21
22.341214
0
LINE
8
2
62
7
10
45.183870
20
22.341214
11
50.307412
21
23.380638
0
LINE
8
2
62
7
10
50.307412
20
23.380638
11
55.470051
21
23.494160
0
LINE
8
2
62
7
10
55.470051
20
23.494160
11
77.746607
21
22.948790
0
LINE
8
2
62
7
10
77.746607
20
22.948790
11
80.067726
21
22.499602
0
LINE
8
2
62
7
10
80.067726
20
22.499602
11
86.277970
21
21.282278
0
LINE
8
2
62
7
10
86.277970
20
21.282278
11
89.681091
21
19.656352
0
LINE
8
2
62
7
10
89.681091
20
19.656352
11
95.553395
21
16.799930
0
LINE
8
2
62
7
10
95.553395
20
16.799930
11
99.319000
21
16.202296
0
LINE
8
2
62
7
10
99.319000
20
16.202296
11
101.846239
21
15.801202
0
LINE
8
2
62
7
10
101.846239
20
15.801202
11
109.515577
21
16.086340
0
LINE
8
2
62
7
10
109.515577
20
16.086340
11
111.720110
21
16.060130
0
LINE
8
2
62
7
10
111.720110
20
16.060130
11
113.109055
21
15.910845
0
LINE
8
2
62
7
10
113.109055
20
15.910845
11
118.420030
21
16.204558
0
LINE
8
2
62
7
10
118.420030
20
16.204558
11
119.509822
21
16.359181
0
LINE
8
2
62
7
10
119.509822
20
16.359181
11
123.655754
21
16.279776
0
LINE
8
2
62
7
10
123.655754
20
16.279776
11
163.030000
21
5.712149
0
LINE
8
2
62
7
10
163.030000
20
5.712149
11
164.480000
21
5.462076
0
LINE
8
2
62
7
10
164.480000
20
5.462076
11
165.480000
21
5.193687
0
LINE
8
2
62
7
10
5.142262
20
-32.931304
11
7.517019
21
-32.426300
0
LINE
8
2
62
7
10
7.517019
20
-32.426300
11
12.556151
21
-31.051269
0
LINE
8
2
62
7
10
12.556151
20
-31.051269
11
15.953568
21
-29.859599
0
LINE
8
2
62
7
10
15.953568
20
-29.859599
11
24.155999
21
-27.016528
0
LINE
8
2
62
7
10
24.155999
20
-27.016528
11
26.892156
21
-26.426062
0
LINE
8
2
62
7
10
26.892156
20
-26.426062
11
30.651461
21
-26.003137
0
LINE
8
2
62
7
10
30.651461
20
-26.003137
11
32.463329
21
-25.777468
0
LINE
8
2
62
7
10
32.463329
20
-25.777468
11
38.807097
21
-25.823335
0
LINE
8
2
62
7
10
38.807097
20
-25.823335
11
42.849506
21
-26.435424
0
LINE
8
2
62
7
10
42.849506
20
-26.435424
11
44.990894
21
-26.518487
0
LINE
8
2
62
7
10
44.990894
20
-26.518487
11
51.454994
21
-26.700711
0
LINE
8
2
62
7
10
51.454994
20
-26.700711
11
55.124490
21
-26.321103
0
LINE
8
2
62
7
10
55.124490
20
-26.321103
11
77.141026
21
-21.336936
0
LINE
8
2
62
7
10
77.141026
20
-21.336936
11
79.720118
21
-20.593504
0
LINE
8
2
62
7
10
79.720118
20
-20.593504
11
84.250552
21
-18.795008
0
LINE
8
2
62
7
10
84.250552
20
-18.795008
11
88.872798
21
-16.310778
0
LINE
8
2
62
7
10
88.872798
20
-16.310778
11
93.065141
21
-13.999647
0
LINE
8
2
62
7
10
93.065141
20
-13.999647
11
99.319000
21
-11.381404
0
LINE
8
2
62
7
10
99.319000
20
-11.381404
11
103.267712
21
-9.728236
0
LINE
8
2
62
7
10
103.267712
20
-9.728236
11
106.475026
21
-9.273660
0
LINE
8
2
62
7
10
106.475026
20
-9.273660
11
112.271230
21
-8.379114
0
LINE
8
2
62
7
10
112.271230
20
-8.379114
11
114.956831
21
-7.429576
0
LINE
8
2
62
7
10
114.956831
20
-7.429576
11
117.928432
21
-6.995178
0
LINE
8
2
62
7
10
117.928432
20
-6.995178
11
118.244297
21
-6.924690
0
LINE
8
2
62
7
10
118.244297
20
-6.924690
11
125.659795
21
-5.767888
0
LINE
8
2
62
7
10
125.659795
20
-5.767888
11
163.030000
21
9.693445
0
LINE
8
2
62
7
10
163.030000
20
9.693445
11
164.480000
21
10.068887
0
LINE
8
2
62
7
10
164.480000
20
10.068887
11
165.480000
21
10.482621
0
LINE
8
2
62
7
10
2.637685
20
-23.725041
11
6.376423
21
-23.087635
0
LINE
8
2
62
7
10
6.376423
20
-23.087635
11
9.033700
21
-22.476462
0
LINE
8
2
62
7
10
9.033700
20
-22.476462
11
15.414363
21
-20.760748
0
LINE
8
2
62
7
10
15.414363
20
-20.760748
11
20.511934
21
-19.406064
0
LINE
8
2
62
7
10
20.511934
20
-19.406064
11
27.360352
21
-18.072733
0
LINE
8
2
62
7
10
27.360352
20
-18.072733
11
30.024525
21
-17.786644
0
LINE
8
2
62
7
10
30.024525
20
-17.786644
11
33.742963
21
-17.293407
0
LINE
8
2
62
7
10
33.742963
20
-17.293407
11
37.508519
21
-17.205116
0
LINE
8
2
62
7
10
37.508519
20
-17.205116
11
42.257876
21
-17.435215
0
LINE
8
2
62
7
10
42.257876
20
-17.435215
11
45.368332
21
-17.434590
0
LINE
8
2
62
7
10
45.368332
20
-17.434590
11
48.640338
21
-17.332599
0
LINE
8
2
62
7
10
48.640338
20
-17.332599
11
56.146529
21
-16.601269
0
LINE
8
2
62
7
10
56.146529
20
-16.601269
11
74.785155
21
-13.061114
0
LINE
8
2
62
7
10
74.785155
20
-13.061114
11
78.573138
21
-12.302329
0
LINE
8
2
62
7
10
78.573138
20
-12.302329
11
80.358471
21
-11.783435
0
LINE
8
2
62
7
10
80.358471
20
-11.783435
11
87.683167
21
-9.303973
0
LINE
8
2
62
7
10
87.683167
20
-9.303973
11
89.990243
21
-8.503076
0
LINE
8
2
62
7
10
89.990243
20
-8.503076
11
99.319000
21
-5.573605
0
LINE
8
2
62
7
10
99.319000
20
-5.573605
11
103.966628
21
-4.114129
0
LINE
8
2
62
7
10
103.966628
20
-4.114129
11
105.317978
21
-3.924077
0
LINE
8
2
62
7
10
105.317978
20
-3.924077
11
112.451787
21
-2.928683
0
LINE
8
2
62
7
10
112.451787
20
-2.928683
11
115.421875
21
-2.074075
0
LINE
8
2
62
7
10
115.421875
20
-2.074075
11
117.822677
21
-1.704835
0
LINE
8
2
62
7
10
117.822677
20
-1.704835
11
117.982229
21
-1.664348
0
LINE
8
2
62
7
10
117.982229
20
-1.664348
11
125.963474
21
-0.522618
0
LINE
8
2
62
7
10
125.963474
20
-0.522618
11
163.030000
21
9.927176
0
LINE
8
2
62
7
10
163.030000
20
9.927176
11
164.480000
21
10.189323
0
LINE
8
2
62
7
10
164.480000
20
10.189323
11
165.480000
21
10.471243
0
LINE
8
2
62
7
10
0.966086
20
-14.414435
11
5.626436
21
-13.810709
0
LINE
8
2
62
7
10
5.626436
20
-13.810709
11
6.684307
21
-13.611041
0
LINE
8
2
62
7
10
6.684307
20
-13.611041
11
15.078773
21
-12.002321
0
LINE
8
2
62
7
10
15.078773
20
-12.002321
11
18.122797
21
-11.425884
0
LINE
8
2
62
7
10
18.122797
20
-11.425884
11
27.650955
21
-9.781894
0
LINE
8
2
62
7
10
27.650955
20
-9.781894
11
29.633916
21
-9.581033
0
LINE
8
2
62
7
10
29.633916
20
-9.581033
11
34.507224
21
-8.902533
0
LINE
8
2
62
7
10
34.507224
20
-8.902533
11
36.747650
21
-8.784714
0
LINE
8
2
62
7
10
36.747650
20
-8.784714
11
41.912283
21
-8.545101
0
LINE
8
2
62
7
10
41.912283
20
-8.545101
11
45.588670
21
-8.411530
0
LINE
8
2
62
7
10
45.588670
20
-8.411530
11
47.104141
21
-8.282155
0
LINE
8
2
62
7
10
47.104141
20
-8.282155
11
56.685840
21
-7.390044
0
LINE
8
2
62
7
10
56.685840
20
-7.390044
11
73.591341
21
-4.701082
0
LINE
8
2
62
7
10
73.591341
20
-4.701082
11
78.013947
21
-4.173835
0
LINE
8
2
62
7
10
78.013947
20
-4.173835
11
78.358010
21
-4.106361
0
LINE
8
2
62
7
10
78.358010
20
-4.106361
11
87.161514
21
-2.640137
0
LINE
8
2
62
7
10
87.161514
20
-2.640137
11
88.505442
21
-2.409547
0
LINE
8
2
62
7
10
88.505442
20
-2.409547
11
99.319000
21
0.000302
0
LINE
8
2
62
7
10
99.319000
20
0.000302
11
104.107543
21
1.067450
0
LINE
8
2
62
7
10
104.107543
20
1.067450
11
105.094280
21
1.199836
0
LINE
8
2
62
7
10
105.094280
20
1.199836
11
112.464121
21
2.089191
0
LINE
8
2
62
7
10
112.464121
20
2.089191
11
115.392965
21
2.734678
0
LINE
8
2
62
7
10
115.392965
20
2.734678
11
117.838159
21
3.105808
0
LINE
8
2
62
7
10
117.838159
20
3.105808
11
118.024243
21
3.155387
0
LINE
8
2
62
7
10
118.024243
20
3.155387
11
125.810397
21
4.106831
0
LINE
8
2
62
7
10
125.810397
20
4.106831
11
163.030000
21
10.158588
0
LINE
8
2
62
7
10
163.030000
20
10.158588
11
164.480000
21
10.312015
0
LINE
8
2
62
7
10
164.480000
20
10.312015
11
165.480000
21
10.474611
0
LINE
8
2
62
7
10
0.115827
20
-5.000943
11
5.254671
21
-4.543143
0
LINE
8
2
62
7
10
5.254671
20
-4.543143
11
5.503587
21
-4.506280
0
LINE
8
2
62
7
10
5.503587
20
-4.506280
11
14.923979
21
-3.408806
0
LINE
8
2
62
7
10
14.923979
20
-3.408806
11
16.991438
21
-3.171011
0
LINE
8
2
62
7
10
16.991438
20
-3.171011
11
27.768262
21
-1.554199
0
LINE
8
2
62
7
10
27.768262
20
-1.554199
11
29.477768
21
-1.392340
0
LINE
8
2
62
7
10
29.477768
20
-1.392340
11
34.780455
21
-0.623368
0
LINE
8
2
62
7
10
34.780455
20
-0.623368
11
36.481118
21
-0.486077
0
LINE
8
2
62
7
10
36.481118
20
-0.486077
11
41.803197
21
0.254212
0
LINE
8
2
62
7
10
41.803197
20
0.254212
11
45.655237
21
0.527993
0
LINE
8
2
62
7
10
45.655237
20
0.527993
11
46.658391
21
0.665829
0
LINE
8
2
62
7
10
46.658391
20
0.665829
11
56.812956
21
1.562228
0
LINE
8
2
62
7
10
56.812956
20
1.562228
11
73.525488
21
3.718358
0
LINE
8
2
62
7
10
73.525488
20
3.718358
11
78.004622
21
3.896449
0
LINE
8
2
62
7
10
78.004622
20
3.896449
11
78.335646
21
3.931053
0
LINE
8
2
62
7
10
78.335646
20
3.931053
11
87.217563
21
3.943137
0
LINE
8
2
62
7
10
87.217563
20
3.943137
11
88.717827
21
3.948133
0
LINE
8
2
62
7
10
88.717827
20
3.948133
11
99.319000
21
5.397270
0
LINE
8
2
62
7
10
99.319000
20
5.397270
11
103.794915
21
6.009109
0
LINE
8
2
62
7
10
103.794915
20
6.009109
11
105.700112
21
6.245970
0
LINE
8
2
62
7
10
105.700112
20
6.245970
11
112.337513
21
6.898681
0
LINE
8
2
62
7
10
112.337513
20
6.898681
11
114.974938
21
7.295541
0
LINE
8
2
62
7
10
114.974938
20
7.295541
11
117.953092
21
7.724093
0
LINE
8
2
62
7
10
117.953092
20
7.724093
11
118.320248
21
7.822587
0
LINE
8
2
62
7
10
118.320248
20
7.822587
11
125.304354
21
8.503550
0
LINE
8
2
62
7
10
125.304354
20
8.503550
11
163.030000
21
10.375659
0
LINE
8
2
62
7
10
163.030000
20
10.375659
11
164.480000
21
10.422804
0
LINE
8
2
62
7
10
164.480000
20
10.422804
11
165.480000
21
10.472428
0
LINE
8
2
62
7
10
0.094459
20
4.516380
11
5.259209
21
4.766367
0
LINE
8
2
62
7
10
5.259209
20
4.766367
11
5.522622
21
4.794576
0
LINE
8
2
62
7
10
5.522622
20
4.794576
11
14.941791
21
5.182829
0
LINE
8
2
62
7
10
14.941791
20
5.182829
11
17.156544
21
5.272524
0
LINE
8
2
62
7
10
17.156544
20
5.272524
11
27.716167
21
6.621129
0
LINE
8
2
62
7
10
27.716167
20
6.621129
11
29.554335
21
6.782809
0
LINE
8
2
62
7
10
29.554335
20
6.782809
11
34.584849
21
7.540851
0
LINE
8
2
62
7
10
34.584849
20
7.540851
11
36.689359
21
7.769021
0
LINE
8
2
62
7
10
36.689359
20
7.769021
11
41.924208
21
8.999614
0
LINE
8
2
62
7
10
41.924208
20
8.999614
11
45.572299
21
9.385368
0
LINE
8
2
62
7
10
45.572299
20
9.385368
11
47.272639
21
9.708363
0
LINE
8
2
62
7
10
47.272639
20
9.708363
11
56.552111
21
10.462512
0
LINE
8
2
62
7
10
56.552111
20
10.462512
11
74.609484
21
12.203307
0
LINE
8
2
62
7
10
74.609484
20
12.203307
11
78.546034
21
12.036207
0
LINE
8
2
62
7
10
78.546034
20
12.036207
11
80.467994
21
12.053917
0
LINE
8
2
62
7
10
80.467994
20
12.053917
11
87.875415
21
10.759171
0
LINE
8
2
62
7
10
87.875415
20
10.759171
11
90.761132
21
10.251218
0
LINE
8
2
62
7
10
90.761132
20
10.251218
11
99.319000
21
10.683353
0
LINE
8
2
62
7
10
99.319000
20
10.683353
11
103.054061
21
10.871957
0
LINE
8
2
62
7
10
103.054061
20
10.871957
11
107.194827
21
11.338944
0
LINE
8
2
62
7
10
107.194827
20
11.338944
11
112.076100
21
11.693701
0
LINE
8
2
62
7
10
112.076100
20
11.693701
11
114.168398
21
11.853287
0
LINE
8
2
62
7
10
114.168398
20
11.853287
11
118.168603
21
12.384451
0
LINE
8
2
62
7
10
118.168603
20
12.384451
11
118.869225
21
12.569779
0
LINE
8
2
62
7
10
118.869225
20
12.569779
11
124.456546
21
12.961196
0
LINE
8
2
62
7
10
124.456546
20
12.961196
11
163.030000
21
10.588196
0
LINE
8
2
62
7
10
163.030000
20
10.588196
11
164.480000
21
10.529773
0
LINE
8
2
62
7
10
164.480000
20
10.529773
11
165.480000
21
10.468254
0
LINE
8
2
62
7
10
0.929623
20
14.140998
11
5.648606
21
14.172876
0
LINE
8
2
62
7
10
5.648606
20
14.172876
11
6.812574
21
14.248234
0
LINE
8
2
62
7
10
6.812574
20
14.248234
11
15.137679
21
13.944198
0
LINE
8
2
62
7
10
15.137679
20
13.944198
11
18.698050
21
13.814359
0
LINE
8
2
62
7
10
18.698050
20
13.814359
11
27.497606
21
14.750288
0
LINE
8
2
62
7
10
27.497606
20
14.750288
11
29.862596
21
14.943418
0
LINE
8
2
62
7
10
29.862596
20
14.943418
11
33.938760
21
15.583985
0
LINE
8
2
62
7
10
33.938760
20
15.583985
11
37.374944
21
16.052426
0
LINE
8
2
62
7
10
37.374944
20
16.052426
11
42.273027
21
17.723053
0
LINE
8
2
62
7
10
42.273027
20
17.723053
11
45.343980
21
18.158592
0
LINE
8
2
62
7
10
45.343980
20
18.158592
11
49.066286
21
19.075177
0
LINE
8
2
62
7
10
49.066286
20
19.075177
11
55.885665
21
19.552139
0
LINE
8
2
62
7
10
55.885665
20
19.552139
11
76.934636
21
20.754981
0
LINE
8
2
62
7
10
76.934636
20
20.754981
11
79.685005
21
20.390729
0
LINE
8
2
62
7
10
79.685005
20
20.390729
11
85.072716
21
19.866226
0
LINE
8
2
62
7
10
85.072716
20
19.866226
11
89.316368
21
18.227384
0
LINE
8
2
62
7
10
89.316368
20
18.227384
11
94.824110
21
16.069912
0
LINE
8
2
62
7
10
94.824110
20
16.069912
11
99.319000
21
15.892324
0
LINE
8
2
62
7
10
99.319000
20
15.892324
11
101.848830
21
15.792373
0
LINE
8
2
62
7
10
101.848830
20
15.792373
11
109.831801
21
16.603532
0
LINE
8
2
62
7
10
109.831801
20
16.603532
11
111.660188
21
16.682360
0
LINE
8
2
62
7
10
111.660188
20
16.682360
11
112.871858
21
16.675490
0
LINE
8
2
62
7
10
112.871858
20
16.675490
11
118.509081
21
17.356235
0
LINE
8
2
62
7
10
118.509081
20
17.356235
11
119.807466
21
17.694168
0
LINE
8
2
62
7
10
119.807466
20
17.694168
11
123.292096
21
17.756037
0
LINE
8
2
62
7
10
123.292096
20
17.756037
11
163.030000
21
10.784034
0
LINE
8
2
62
7
10
163.030000
20
10.784034
11
164.480000
21
10.618679
0
LINE
8
2
62
7
10
164.480000
20
10.618679
11
165.480000
21
10.443230
0
LINE
8
2
62
7
10
4.433169
20
-30.627948
11
7.180071
21
-29.976419
0
LINE
8
2
62
7
10
7.180071
20
-29.976419
11
11.404833
21
-28.581283
0
LINE
8
2
62
7
10
11.404833
20
-28.581283
11
15.760855
21
-26.963818
0
LINE
8
2
62
7
10
15.760855
20
-26.963818
11
22.738391
21
-24.405120
0
LINE
8
2
62
7
10
22.738391
20
-24.405120
11
27.096068
21
-23.162455
0
LINE
8
2
62
7
10
27.096068
20
-23.162455
11
30.366874
21
-22.648091
0
LINE
8
2
62
7
10
30.366874
20
-22.648091
11
33.081078
21
-22.101593
0
LINE
8
2
62
7
10
33.081078
20
-22.101593
11
38.145411
21
-21.870336
0
LINE
8
2
62
7
10
38.145411
20
-21.870336
11
42.528800
21
-22.020087
0
LINE
8
2
62
7
10
42.528800
20
-22.020087
11
45.198915
21
-21.982155
0
LINE
8
2
62
7
10
45.198915
20
-21.982155
11
49.783769
21
-21.677368
0
LINE
8
2
62
7
10
49.783769
20
-21.677368
11
55.759017
21
-20.833421
0
LINE
8
2
62
7
10
55.759017
20
-20.833421
11
75.354012
21
-15.503134
0
LINE
8
2
62
7
10
75.354012
20
-15.503134
11
78.830513
21
-14.586926
0
LINE
8
2
62
7
10
78.830513
20
-14.586926
11
81.174396
21
-13.649398
0
LINE
8
2
62
7
10
81.174396
20
-13.649398
11
87.873479
21
-10.745515
0
LINE
8
2
62
7
10
87.873479
20
-10.745515
11
90.452099
21
-9.596214
0
LINE
8
2
62
7
10
90.452099
20
-9.596214
11
99.319000
21
-5.691463
0
LINE
8
2
62
7
10
99.319000
20
-5.691463
11
104.000125
21
-3.630017
0
LINE
8
2
62
7
10
104.000125
20
-3.630017
11
105.253257
21
-3.371961
0
LINE
8
2
62
7
10
105.253257
20
-3.371961
11
112.465863
21
-1.941648
0
LINE
8
2
62
7
10
112.465863
20
-1.941648
11
115.456268
21
-0.721397
0
LINE
8
2
62
7
10
115.456268
20
-0.721397
11
117.816075
21
-0.180973
0
LINE
8
2
62
7
10
117.816075
20
-0.180973
11
117.966087
21
-0.121553
0
LINE
8
2
62
7
10
117.966087
20
-0.121553
11
125.945220
21
1.499200
0
LINE
8
2
62
7
10
125.945220
20
1.499200
11
163.030000
21
15.136015
0
LINE
8
2
62
7
10
163.030000
20
15.136015
11
164.480000
21
15.472862
0
LINE
8
2
62
7
10
164.480000
20
15.472862
11
165.480000
21
15.840582
0
LINE
8
2
62
7
10
2.168679
20
-21.536237
11
6.152257
21
-20.756801
0
LINE
8
2
62
7
10
6.152257
20
-20.756801
11
8.294015
21
-20.140870
0
LINE
8
2
62
7
10
8.294015
20
-20.140870
11
15.293474
21
-18.101557
0
LINE
8
2
62
7
10
15.293474
20
-18.101557
11
19.602770
21
-16.861522
0
LINE
8
2
62
7
10
19.602770
20
-16.861522
11
27.496172
21
-14.788858
0
LINE
8
2
62
7
10
27.496172
20
-14.788858
11
29.836533
21
-14.433394
0
LINE
8
2
62
7
10
29.836533
20
-14.433394
11
34.146763
21
-13.530398
0
LINE
8
2
62
7
10
34.146763
20
-13.530398
11
37.094206
21
-13.303873
0
LINE
8
2
62
7
10
37.094206
20
-13.303873
11
42.055083
21
-12.980146
0
LINE
8
2
62
7
10
42.055083
20
-12.980146
11
45.500751
21
-12.799269
0
LINE
8
2
62
7
10
45.500751
20
-12.799269
11
47.685654
21
-12.526151
0
LINE
8
2
62
7
10
47.685654
20
-12.526151
11
56.507398
21
-11.304693
0
LINE
8
2
62
7
10
56.507398
20
-11.304693
11
73.821968
21
-7.142050
0
LINE
8
2
62
7
10
73.821968
20
-7.142050
11
78.110401
21
-6.369173
0
LINE
8
2
62
7
10
78.110401
20
-6.369173
11
78.700954
21
-6.192186
0
LINE
8
2
62
7
10
78.700954
20
-6.192186
11
87.222000
21
-4.028299
0
LINE
8
2
62
7
10
87.222000
20
-4.028299
11
88.668401
21
-3.649576
0
LINE
8
2
62
7
10
88.668401
20
-3.649576
11
99.319000
21
-0.002501
0
LINE
8
2
62
7
10
99.319000
20
-0.002501
11
104.093938
21
1.632577
0
LINE
8
2
62
7
10
104.093938
20
1.632577
11
105.125461
21
1.841554
0
LINE
8
2
62
7
10
105.125461
20
1.841554
11
112.447454
21
3.171318
0
LINE
8
2
62
7
10
112.447454
20
3.171318
11
115.305089
21
4.138132
0
LINE
8
2
62
7
10
115.305089
20
4.138132
11
117.867350
21
4.727724
0
LINE
8
2
62
7
10
117.867350
20
4.727724
11
118.101837
21
4.825672
0
LINE
8
2
62
7
10
118.101837
20
4.825672
11
125.612133
21
6.202901
0
LINE
8
2
62
7
10
125.612133
20
6.202901
11
163.030000
21
15.366664
0
LINE
8
2
62
7
10
163.030000
20
15.366664
11
164.480000
21
15.595611
0
LINE
8
2
62
7
10
164.480000
20
15.595611
11
165.480000
21
15.840515
0
LINE
8
2
62
7
10
0.701858
20
-12.293661
11
5.501081
21
-11.550418
0
LINE
8
2
62
7
10
5.501081
20
-11.550418
11
6.279549
21
-11.359020
0
LINE
8
2
62
7
10
6.279549
20
-11.359020
11
15.015524
21
-9.484103
0
LINE
8
2
62
7
10
15.015524
20
-9.484103
11
17.642399
21
-8.927416
0
LINE
8
2
62
7
10
17.642399
20
-8.927416
11
27.717929
21
-6.514514
0
LINE
8
2
62
7
10
27.717929
20
-6.514514
11
29.542239
21
-6.248632
0
LINE
8
2
62
7
10
29.542239
20
-6.248632
11
34.690537
21
-5.134133
0
LINE
8
2
62
7
10
34.690537
20
-5.134133
11
36.564601
21
-4.934485
0
LINE
8
2
62
7
10
36.564601
20
-4.934485
11
41.828059
21
-4.085853
0
LINE
8
2
62
7
10
41.828059
20
-4.085853
11
45.642233
21
-3.747870
0
LINE
8
2
62
7
10
45.642233
20
-3.747870
11
46.737753
21
-3.550499
0
LINE
8
2
62
7
10
46.737753
20
-3.550499
11
56.807210
21
-2.190766
0
LINE
8
2
62
7
10
56.807210
20
-2.190766
11
73.429169
21
1.307142
0
LINE
8
2
62
7
10
73.429169
20
1.307142
11
77.954268
21
1.758089
0
LINE
8
2
62
7
10
77.954268
20
1.758089
11
78.142258
21
1.796542
0
LINE
8
2
62
7
10
78.142258
20
1.796542
11
87.159004
21
2.566313
0
LINE
8
2
62
7
10
87.159004
20
2.566313
11
88.536380
21
2.690064
0
LINE
8
2
62
7
10
88.536380
20
2.690064
11
99.319000
21
5.418525
0
LINE
8
2
62
7
10
99.319000
20
5.418525
11
103.735612
21
6.536116
0
LINE
8
2
62
7
10
103.735612
20
6.536116
11
105.851069
21
6.946935
0
LINE
8
2
62
7
10
105.851069
20
6.946935
11
112.290620
21
7.974566
0
LINE
8
2
62
7
10
112.290620
20
7.974566
11
114.779253
21
8.632468
0
LINE
8
2
62
7
10
114.779253
20
8.632468
11
118.016983
21
9.351670
0
LINE
8
2
62
7
10
118.016983
20
9.351670
11
118.491418
21
9.551399
0
LINE
8
2
62
7
10
118.491418
20
9.551399
11
124.950575
21
10.569648
0
LINE
8
2
62
7
10
124.950575
20
10.569648
11
163.030000
21
15.582881
0
LINE
8
2
62
7
10
163.030000
20
15.582881
11
164.480000
21
15.707428
0
LINE
8
2
62
7
10
164.480000
20
15.707428
11
165.480000
21
15.839080
0
LINE
8
2
62
7
10
0.038910
20
-2.899046
11
5.221229
21
-2.307753
0
LINE
8
2
62
7
10
5.221229
20
-2.307753
11
5.396175
21
-2.272046
0
LINE
8
2
62
7
10
5.396175
20
-2.272046
11
14.911457
21
-0.951118
0
LINE
8
2
62
7
10
14.911457
20
-0.951118
11
16.902369
21
-0.678473
0
LINE
8
2
62
7
10
16.902369
20
-0.678473
11
27.767782
21
1.672663
0
LINE
8
2
62
7
10
27.767782
20
1.672663
11
29.480745
21
1.911117
0
LINE
8
2
62
7
10
29.480745
20
1.911117
11
34.748847
21
3.085387
0
LINE
8
2
62
7
10
34.748847
20
3.085387
11
36.518563
21
3.324689
0
LINE
8
2
62
7
10
36.518563
20
3.324689
11
41.836186
21
4.704195
0
LINE
8
2
62
7
10
41.836186
20
4.704195
11
45.630212
21
5.174325
0
LINE
8
2
62
7
10
45.630212
20
5.174325
11
46.850208
21
5.460669
0
LINE
8
2
62
7
10
46.850208
20
5.460669
11
56.708433
21
6.733653
0
LINE
8
2
62
7
10
56.708433
20
6.733653
11
74.190662
21
9.849011
0
LINE
8
2
62
7
10
74.190662
20
9.849011
11
78.351808
21
9.920359
0
LINE
8
2
62
7
10
78.351808
20
9.920359
11
79.729560
21
10.067830
0
LINE
8
2
62
7
10
79.729560
20
10.067830
11
87.688396
21
9.346598
0
LINE
8
2
62
7
10
87.688396
20
9.346598
11
90.242058
21
9.118248
0
LINE
8
2
62
7
10
90.242058
20
9.118248
11
99.319000
21
10.630609
0
LINE
8
2
62
7
10
99.319000
20
10.630609
11
102.979952
21
11.240581
0
LINE
8
2
62
7
10
102.979952
20
11.240581
11
107.486763
21
12.064084
0
LINE
8
2
62
7
10
107.486763
20
12.064084
11
112.006813
21
12.662899
0
LINE
8
2
62
7
10
112.006813
20
12.662899
11
113.899222
21
13.013004
0
LINE
8
2
62
7
10
113.899222
20
13.013004
11
118.261570
21
13.920188
0
LINE
8
2
62
7
10
118.261570
20
13.920188
11
119.130741
21
14.278139
0
LINE
8
2
62
7
10
119.130741
20
14.278139
11
124.003285
21
14.886113
0
LINE
8
2
62
7
10
124.003285
20
14.886113
11
163.030000
21
15.788940
0
LINE
8
2
62
7
10
163.030000
20
15.788940
11
164.480000
21
15.810930
0
LINE
8
2
62
7
10
164.480000
20
15.810930
11
165.480000
21
15.834063
0
LINE
8
2
62
7
10
0.205041
20
6.652375
11
5.317340
21
7.023726
0
LINE
8
2
62
7
10
5.317340
20
7.023726
11
5.716381
21
7.088102
0
LINE
8
2
62
7
10
5.716381
20
7.088102
11
14.978968
21
7.659766
0
LINE
8
2
62
7
10
14.978968
20
7.659766
11
17.466897
21
7.810630
0
LINE
8
2
62
7
10
17.466897
20
7.810630
11
27.650860
21
9.785752
0
LINE
8
2
62
7
10
27.650860
20
9.785752
11
29.649957
21
10.051103
0
LINE
8
2
62
7
10
29.649957
20
10.051103
11
34.352356
21
11.130621
0
LINE
8
2
62
7
10
34.352356
20
11.130621
11
36.943116
21
11.554331
0
LINE
8
2
62
7
10
36.943116
20
11.554331
11
42.073035
21
13.434394
0
LINE
8
2
62
7
10
42.073035
20
13.434394
11
45.470945
21
13.977464
0
LINE
8
2
62
7
10
45.470945
20
13.977464
11
48.085773
21
14.740248
0
LINE
8
2
62
7
10
48.085773
20
14.740248
11
56.217250
21
15.705306
0
LINE
8
2
62
7
10
56.217250
20
15.705306
11
76.193865
21
18.497261
0
LINE
8
2
62
7
10
76.193865
20
18.497261
11
79.339174
21
18.270137
0
LINE
8
2
62
7
10
79.339174
20
18.270137
11
83.873173
21
18.269921
0
LINE
8
2
62
7
10
83.873173
20
18.269921
11
88.970561
21
16.753058
0
LINE
8
2
62
7
10
88.970561
20
16.753058
11
94.055968
21
15.225562
0
LINE
8
2
62
7
10
94.055968
20
15.225562
11
99.319000
21
15.654411
0
LINE
8
2
62
7
10
99.319000
20
15.654411
11
101.829250
21
15.858955
0
LINE
8
2
62
7
10
101.829250
20
15.858955
11
110.283169
21
17.305005
0
LINE
8
2
62
7
10
110.283169
20
17.305005
11
111.584630
21
17.435049
0
LINE
8
2
62
7
10
111.584630
20
17.435049
11
112.591158
21
17.533208
0
LINE
8
2
62
7
10
112.591158
20
17.533208
11
118.618866
21
18.677992
0
LINE
8
2
62
7
10
118.618866
20
18.677992
11
120.286560
21
19.338017
0
LINE
8
2
62
7
10
120.286560
20
19.338017
11
122.953814
21
19.401722
0
LINE
8
2
62
7
10
122.953814
20
19.401722
11
163.030000
21
15.659147
0
LINE
8
2
62
7
10
163.030000
20
15.659147
11
164.480000
21
15.570585
0
LINE
8
2
62
7
10
164.480000
20
15.570585
11
165.480000
21
15.477199
0
LINE
8
2
62
7
10
3.842995
20
-28.556203
11
6.897380
21
-27.751546
0
LINE
8
2
62
7
10
6.897380
20
-27.751546
11
10.463429
21
-26.353044
0
LINE
8
2
62
7
10
10.463429
20
-26.353044
11
15.602025
21
-24.318201
0
LINE
8
2
62
7
10
15.602025
20
-24.318201
11
21.582623
21
-21.980798
0
LINE
8
2
62
7
10
21.582623
20
-21.980798
11
27.270613
21
-19.947518
0
LINE
8
2
62
7
10
27.270613
20
-19.947518
11
30.126922
21
-19.369659
0
LINE
8
2
62
7
10
30.126922
20
-19.369659
11
33.605933
21
-18.394265
0
LINE
8
2
62
7
10
33.605933
20
-18.394265
11
37.606154
21
-18.000404
0
LINE
8
2
62
7
10
37.606154
20
-18.000404
11
42.268365
21
-17.634984
0
LINE
8
2
62
7
10
42.268365
20
-17.634984
11
45.368473
21
-17.430312
0
LINE
8
2
62
7
10
45.368473
20
-17.430312
11
48.545928
21
-16.920636
0
LINE
8
2
62
7
10
48.545928
20
-16.920636
11
56.231331
21
-15.520705
0
LINE
8
2
62
7
10
56.231331
20
-15.520705
11
74.168805
21
-9.709993
0
LINE
8
2
62
7
10
74.168805
20
-9.709993
11
78.258070
21
-8.715812
0
LINE
8
2
62
7
10
78.258070
20
-8.715812
11
79.202799
21
-8.327864
0
LINE
8
2
62
7
10
79.202799
20
-8.327864
11
87.314684
21
-5.513387
0
LINE
8
2
62
7
10
87.314684
20
-5.513387
11
88.911265
21
-4.941504
0
LINE
8
2
62
7
10
88.911265
20
-4.941504
11
99.319000
21
-0.018408
0
LINE
8
2
62
7
10
99.319000
20
-0.018408
11
104.073337
21
2.230502
0
LINE
8
2
62
7
10
104.073337
20
2.230502
11
105.173642
21
2.530471
0
LINE
8
2
62
7
10
105.173642
20
2.530471
11
112.422923
21
4.293503
0
LINE
8
2
62
7
10
112.422923
20
4.293503
11
115.177309
21
5.578731
0
LINE
8
2
62
7
10
115.177309
20
5.578731
11
117.910998
21
6.430115
0
LINE
8
2
62
7
10
117.910998
20
6.430115
11
118.220145
21
6.614646
0
LINE
8
2
62
7
10
118.220145
20
6.614646
11
125.327609
21
8.351081
0
LINE
8
2
62
7
10
125.327609
20
8.351081
11
163.030000
21
20.713612
0
LINE
8
2
62
7
10
163.030000
20
20.713612
11
164.480000
21
21.016206
0
LINE
8
2
62
7
10
164.480000
20
21.016206
11
165.480000
21
21.344104
0
LINE
8
2
62
7
10
1.785702
20
-19.559836
11
5.968732
21
-18.630710
0
LINE
8
2
62
7
10
5.968732
20
-18.630710
11
7.700257
21
-18.026735
0
LINE
8
2
62
7
10
7.700257
20
-18.026735
11
15.196795
21
-15.652420
0
LINE
8
2
62
7
10
15.196795
20
-15.652420
11
18.884531
21
-14.499565
0
LINE
8
2
62
7
10
18.884531
20
-14.499565
11
27.602289
21
-11.591892
0
LINE
8
2
62
7
10
27.602289
20
-11.591892
11
29.691640
21
-11.180430
0
LINE
8
2
62
7
10
29.691640
20
-11.180430
11
34.448707
21
-9.804397
0
LINE
8
2
62
7
10
34.448707
20
-9.804397
11
36.792907
21
-9.498461
0
LINE
8
2
62
7
10
36.792907
20
-9.498461
11
41.913176
21
-8.579995
0
LINE
8
2
62
7
10
41.913176
20
-8.579995
11
45.592050
21
-8.196103
0
LINE
8
2
62
7
10
45.592050
20
-8.196103
11
47.060722
21
-7.872308
0
LINE
8
2
62
7
10
47.060722
20
-7.872308
11
56.727539
21
-6.123856
0
LINE
8
2
62
7
10
56.727539
20
-6.123856
11
73.427303
21
-1.213914
0
LINE
8
2
62
7
10
73.427303
20
-1.213914
11
77.942393
21
-0.488488
0
LINE
8
2
62
7
10
77.942393
20
-0.488488
11
78.094468
21
-0.441393
0
LINE
8
2
62
7
10
78.094468
20
-0.441393
11
87.124128
21
1.115820
0
LINE
8
2
62
7
10
87.124128
20
1.115820
11
88.419424
21
1.348528
0
LINE
8
2
62
7
10
88.419424
20
1.348528
11
99.319000
21
5.468922
0
LINE
8
2
62
7
10
99.319000
20
5.468922
11
103.665047
21
7.111869
0
LINE
8
2
62
7
10
103.665047
20
7.111869
11
106.043913
21
7.746450
0
LINE
8
2
62
7
10
106.043913
20
7.746450
11
112.233268
21
9.119158
0
LINE
8
2
62
7
10
112.233268
20
9.119158
11
114.542222
21
10.010532
0
LINE
8
2
62
7
10
114.542222
20
10.010532
11
118.098731
21
11.090606
0
LINE
8
2
62
7
10
118.098731
20
11.090606
11
118.719130
21
11.465413
0
LINE
8
2
62
7
10
118.719130
20
11.465413
11
124.510263
21
12.719489
0
LINE
8
2
62
7
10
124.510263
20
12.719489
11
163.030000
21
20.927933
0
LINE
8
2
62
7
10
163.030000
20
20.927933
11
164.480000
21
21.127951
0
LINE
8
2
62
7
10
164.480000
20
21.127951
11
165.480000
21
21.341048
0
LINE
8
2
62
7
10
0.498676
20
-10.367416
11
5.405862
21
-9.478859
0
LINE
8
2
62
7
10
5.405862
20
-9.478859
11
5.975549
21
-9.304684
0
LINE
8
2
62
7
10
5.975549
20
-9.304684
11
14.970153
21
-7.150523
0
LINE
8
2
62
7
10
14.970153
20
-7.150523
11
17.303506
21
-6.599074
0
LINE
8
2
62
7
10
17.303506
20
-6.599074
11
27.757066
21
-3.364326
0
LINE
8
2
62
7
10
27.757066
20
-3.364326
11
29.490386
21
-3.033467
0
LINE
8
2
62
7
10
29.490386
20
-3.033467
11
34.774389
21
-1.463278
0
LINE
8
2
62
7
10
34.774389
20
-1.463278
11
36.485184
21
-1.187837
0
LINE
8
2
62
7
10
36.485184
20
-1.187837
11
41.803242
21
0.308696
0
LINE
8
2
62
7
10
41.803242
20
0.308696
11
45.654814
21
0.851949
0
LINE
8
2
62
7
10
45.654814
20
0.851949
11
46.663875
21
1.133182
0
LINE
8
2
62
7
10
46.663875
20
1.133182
11
56.798059
21
2.925073
0
LINE
8
2
62
7
10
56.798059
20
2.925073
11
73.851620
21
7.397157
0
LINE
8
2
62
7
10
73.851620
20
7.397157
11
78.190562
21
7.732251
0
LINE
8
2
62
7
10
78.190562
20
7.732251
11
79.094970
21
7.920402
0
LINE
8
2
62
7
10
79.094970
20
7.920402
11
87.521824
21
7.874287
0
LINE
8
2
62
7
10
87.521824
20
7.874287
11
89.752240
21
7.870206
0
LINE
8
2
62
7
10
89.752240
20
7.870206
11
99.319000
21
10.642393
0
LINE
8
2
62
7
10
99.319000
20
10.642393
11
102.888912
21
11.676857
0
LINE
8
2
62
7
10
102.888912
20
11.676857
11
107.875346
21
12.956323
0
LINE
8
2
62
7
10
107.875346
20
12.956323
11
111.923406
21
13.738752
0
LINE
8
2
62
7
10
111.923406
20
13.738752
11
113.586661
21
14.235250
0
LINE
8
2
62
7
10
113.586661
20
14.235250
11
118.376245
21
15.606984
0
LINE
8
2
62
7
10
118.376245
20
15.606984
11
119.490283
21
16.262491
0
LINE
8
2
62
7
10
119.490283
20
16.262491
11
123.489145
21
16.945726
0
LINE
8
2
62
7
10
123.489145
20
16.945726
11
163.030000
21
21.129724
0
LINE
8
2
62
7
10
163.030000
20
21.129724
11
164.480000
21
21.230001
0
LINE
8
2
62
7
10
164.480000
20
21.230001
11
165.480000
21
21.335816
0
LINE
8
2
62
7
10
0.004384
20
-0.973226
11
5.209733
21
-0.246495
0
LINE
8
2
62
7
10
5.209733
20
-0.246495
11
5.359904
21
-0.207154
0
LINE
8
2
62
7
10
5.359904
20
-0.207154
11
14.912503
21
1.341356
0
LINE
8
2
62
7
10
14.912503
20
1.341356
11
16.923749
21
1.662785
0
LINE
8
2
62
7
10
16.923749
20
1.662785
11
27.742878
21
4.754045
0
LINE
8
2
62
7
10
27.742878
20
4.754045
11
29.519268
21
5.081864
0
LINE
8
2
62
7
10
29.519268
20
5.081864
11
34.629160
21
6.639084
0
LINE
8
2
62
7
10
34.629160
20
6.639084
11
36.651179
21
7.024328
0
LINE
8
2
62
7
10
36.651179
20
7.024328
11
41.926604
21
9.088175
0
LINE
8
2
62
7
10
41.926604
20
9.088175
11
45.565998
21
9.734228
0
LINE
8
2
62
7
10
45.565998
20
9.734228
11
47.355860
21
10.339439
0
LINE
8
2
62
7
10
47.355860
20
10.339439
11
56.475400
21
11.870648
0
LINE
8
2
62
7
10
56.475400
20
11.870648
11
75.521016
21
16.146289
0
LINE
8
2
62
7
10
75.521016
20
16.146289
11
79.025902
21
16.103608
0
LINE
8
2
62
7
10
79.025902
20
16.103608
11
82.692531
21
16.463965
0
LINE
8
2
62
7
10
82.692531
20
16.463965
11
88.642185
21
15.214151
0
LINE
8
2
62
7
10
88.642185
20
15.214151
11
93.252216
21
14.244473
0
LINE
8
2
62
7
10
93.252216
20
14.244473
11
99.319000
21
15.511810
0
LINE
8
2
62
7
10
99.319000
20
15.511810
11
101.779775
21
16.025860
0
LINE
8
2
62
7
10
101.779775
20
16.025860
11
110.962871
21
18.289696
  0
ENDSEC
  0
EOF
